<svg xmlns="http://www.w3.org/2000/svg" width="114" height="36" viewBox="0 0 114 36"><rect x="1" y="1" width="112" height="34" rx="8" fill="#0a0c10" stroke="#1c2733" stroke-width="2"/><g><rect x="16" y="13" width="2" height="2" fill="#00e5ff"/><rect x="18" y="13" width="2" height="2" fill="#00e5ff"/><rect x="20" y="13" width="2" height="2" fill="#00e5ff"/><rect x="22" y="13" width="2" height="2" fill="#00e5ff"/><rect x="16" y="15" width="2" height="2" fill="#00e5ff"/><rect x="24" y="15" width="2" height="2" fill="#00e5ff"/><rect x="16" y="17" width="2" height="2" fill="#00e5ff"/><rect x="24" y="17" width="2" height="2" fill="#00e5ff"/><rect x="16" y="19" width="2" height="2" fill="#00e5ff"/><rect x="24" y="19" width="2" height="2" fill="#00e5ff"/><rect x="16" y="21" width="2" height="2" fill="#00e5ff"/><rect x="18" y="21" width="2" height="2" fill="#00e5ff"/><rect x="20" y="21" width="2" height="2" fill="#00e5ff"/><rect x="22" y="21" width="2" height="2" fill="#00e5ff"/></g>
<g><rect x="28" y="13" width="2" height="2" fill="#00e5ff"/><rect x="30" y="13" width="2" height="2" fill="#00e5ff"/><rect x="32" y="13" width="2" height="2" fill="#00e5ff"/><rect x="34" y="13" width="2" height="2" fill="#00e5ff"/><rect x="36" y="13" width="2" height="2" fill="#00e5ff"/><rect x="32" y="15" width="2" height="2" fill="#00e5ff"/><rect x="32" y="17" width="2" height="2" fill="#00e5ff"/><rect x="32" y="19" width="2" height="2" fill="#00e5ff"/><rect x="28" y="21" width="2" height="2" fill="#00e5ff"/><rect x="30" y="21" width="2" height="2" fill="#00e5ff"/><rect x="32" y="21" width="2" height="2" fill="#00e5ff"/><rect x="34" y="21" width="2" height="2" fill="#00e5ff"/><rect x="36" y="21" width="2" height="2" fill="#00e5ff"/></g>
<g><rect x="42" y="13" width="2" height="2" fill="#00e5ff"/><rect x="44" y="13" width="2" height="2" fill="#00e5ff"/><rect x="46" y="13" width="2" height="2" fill="#00e5ff"/><rect x="48" y="13" width="2" height="2" fill="#00e5ff"/><rect x="40" y="15" width="2" height="2" fill="#00e5ff"/><rect x="42" y="17" width="2" height="2" fill="#00e5ff"/><rect x="44" y="17" width="2" height="2" fill="#00e5ff"/><rect x="46" y="17" width="2" height="2" fill="#00e5ff"/><rect x="48" y="19" width="2" height="2" fill="#00e5ff"/><rect x="40" y="21" width="2" height="2" fill="#00e5ff"/><rect x="42" y="21" width="2" height="2" fill="#00e5ff"/><rect x="44" y="21" width="2" height="2" fill="#00e5ff"/><rect x="46" y="21" width="2" height="2" fill="#00e5ff"/></g>
<g><rect x="54" y="13" width="2" height="2" fill="#00e5ff"/><rect x="56" y="13" width="2" height="2" fill="#00e5ff"/><rect x="58" y="13" width="2" height="2" fill="#00e5ff"/><rect x="60" y="13" width="2" height="2" fill="#00e5ff"/><rect x="52" y="15" width="2" height="2" fill="#00e5ff"/><rect x="52" y="17" width="2" height="2" fill="#00e5ff"/><rect x="52" y="19" width="2" height="2" fill="#00e5ff"/><rect x="54" y="21" width="2" height="2" fill="#00e5ff"/><rect x="56" y="21" width="2" height="2" fill="#00e5ff"/><rect x="58" y="21" width="2" height="2" fill="#00e5ff"/><rect x="60" y="21" width="2" height="2" fill="#00e5ff"/></g>
<g><rect x="66" y="13" width="2" height="2" fill="#00e5ff"/><rect x="68" y="13" width="2" height="2" fill="#00e5ff"/><rect x="70" y="13" width="2" height="2" fill="#00e5ff"/><rect x="64" y="15" width="2" height="2" fill="#00e5ff"/><rect x="72" y="15" width="2" height="2" fill="#00e5ff"/><rect x="64" y="17" width="2" height="2" fill="#00e5ff"/><rect x="72" y="17" width="2" height="2" fill="#00e5ff"/><rect x="64" y="19" width="2" height="2" fill="#00e5ff"/><rect x="72" y="19" width="2" height="2" fill="#00e5ff"/><rect x="66" y="21" width="2" height="2" fill="#00e5ff"/><rect x="68" y="21" width="2" height="2" fill="#00e5ff"/><rect x="70" y="21" width="2" height="2" fill="#00e5ff"/></g>
<g><rect x="76" y="13" width="2" height="2" fill="#00e5ff"/><rect x="78" y="13" width="2" height="2" fill="#00e5ff"/><rect x="80" y="13" width="2" height="2" fill="#00e5ff"/><rect x="82" y="13" width="2" height="2" fill="#00e5ff"/><rect x="76" y="15" width="2" height="2" fill="#00e5ff"/><rect x="84" y="15" width="2" height="2" fill="#00e5ff"/><rect x="76" y="17" width="2" height="2" fill="#00e5ff"/><rect x="78" y="17" width="2" height="2" fill="#00e5ff"/><rect x="80" y="17" width="2" height="2" fill="#00e5ff"/><rect x="82" y="17" width="2" height="2" fill="#00e5ff"/><rect x="76" y="19" width="2" height="2" fill="#00e5ff"/><rect x="82" y="19" width="2" height="2" fill="#00e5ff"/><rect x="76" y="21" width="2" height="2" fill="#00e5ff"/><rect x="84" y="21" width="2" height="2" fill="#00e5ff"/></g>
<g><rect x="88" y="13" width="2" height="2" fill="#00e5ff"/><rect x="90" y="13" width="2" height="2" fill="#00e5ff"/><rect x="92" y="13" width="2" height="2" fill="#00e5ff"/><rect x="94" y="13" width="2" height="2" fill="#00e5ff"/><rect x="88" y="15" width="2" height="2" fill="#00e5ff"/><rect x="96" y="15" width="2" height="2" fill="#00e5ff"/><rect x="88" y="17" width="2" height="2" fill="#00e5ff"/><rect x="96" y="17" width="2" height="2" fill="#00e5ff"/><rect x="88" y="19" width="2" height="2" fill="#00e5ff"/><rect x="96" y="19" width="2" height="2" fill="#00e5ff"/><rect x="88" y="21" width="2" height="2" fill="#00e5ff"/><rect x="90" y="21" width="2" height="2" fill="#00e5ff"/><rect x="92" y="21" width="2" height="2" fill="#00e5ff"/><rect x="94" y="21" width="2" height="2" fill="#00e5ff"/></g></svg>