<svg xmlns="http://www.w3.org/2000/svg" width="174" height="36" viewBox="0 0 174 36"><rect x="1" y="1" width="172" height="34" rx="8" fill="#0a0c10" stroke="#1c2733" stroke-width="2"/><g><rect x="16" y="13" width="2" height="2" fill="#00ff41"/><rect x="18" y="13" width="2" height="2" fill="#00ff41"/><rect x="20" y="13" width="2" height="2" fill="#00ff41"/><rect x="22" y="13" width="2" height="2" fill="#00ff41"/><rect x="24" y="13" width="2" height="2" fill="#00ff41"/><rect x="20" y="15" width="2" height="2" fill="#00ff41"/><rect x="20" y="17" width="2" height="2" fill="#00ff41"/><rect x="20" y="19" width="2" height="2" fill="#00ff41"/><rect x="20" y="21" width="2" height="2" fill="#00ff41"/></g>
<g><rect x="30" y="13" width="2" height="2" fill="#00ff41"/><rect x="32" y="13" width="2" height="2" fill="#00ff41"/><rect x="34" y="13" width="2" height="2" fill="#00ff41"/><rect x="28" y="15" width="2" height="2" fill="#00ff41"/><rect x="36" y="15" width="2" height="2" fill="#00ff41"/><rect x="28" y="17" width="2" height="2" fill="#00ff41"/><rect x="36" y="17" width="2" height="2" fill="#00ff41"/><rect x="28" y="19" width="2" height="2" fill="#00ff41"/><rect x="36" y="19" width="2" height="2" fill="#00ff41"/><rect x="30" y="21" width="2" height="2" fill="#00ff41"/><rect x="32" y="21" width="2" height="2" fill="#00ff41"/><rect x="34" y="21" width="2" height="2" fill="#00ff41"/></g>
<g><rect x="40" y="13" width="2" height="2" fill="#00ff41"/><rect x="48" y="13" width="2" height="2" fill="#00ff41"/><rect x="40" y="15" width="2" height="2" fill="#00ff41"/><rect x="42" y="15" width="2" height="2" fill="#00ff41"/><rect x="48" y="15" width="2" height="2" fill="#00ff41"/><rect x="40" y="17" width="2" height="2" fill="#00ff41"/><rect x="44" y="17" width="2" height="2" fill="#00ff41"/><rect x="48" y="17" width="2" height="2" fill="#00ff41"/><rect x="40" y="19" width="2" height="2" fill="#00ff41"/><rect x="46" y="19" width="2" height="2" fill="#00ff41"/><rect x="48" y="19" width="2" height="2" fill="#00ff41"/><rect x="40" y="21" width="2" height="2" fill="#00ff41"/><rect x="48" y="21" width="2" height="2" fill="#00ff41"/></g>
<g><rect x="52" y="13" width="2" height="2" fill="#00ff41"/><rect x="60" y="13" width="2" height="2" fill="#00ff41"/><rect x="52" y="15" width="2" height="2" fill="#00ff41"/><rect x="58" y="15" width="2" height="2" fill="#00ff41"/><rect x="52" y="17" width="2" height="2" fill="#00ff41"/><rect x="54" y="17" width="2" height="2" fill="#00ff41"/><rect x="56" y="17" width="2" height="2" fill="#00ff41"/><rect x="52" y="19" width="2" height="2" fill="#00ff41"/><rect x="58" y="19" width="2" height="2" fill="#00ff41"/><rect x="52" y="21" width="2" height="2" fill="#00ff41"/><rect x="60" y="21" width="2" height="2" fill="#00ff41"/></g>
<g><rect x="66" y="13" width="2" height="2" fill="#00ff41"/><rect x="68" y="13" width="2" height="2" fill="#00ff41"/><rect x="70" y="13" width="2" height="2" fill="#00ff41"/><rect x="64" y="15" width="2" height="2" fill="#00ff41"/><rect x="72" y="15" width="2" height="2" fill="#00ff41"/><rect x="64" y="17" width="2" height="2" fill="#00ff41"/><rect x="66" y="17" width="2" height="2" fill="#00ff41"/><rect x="68" y="17" width="2" height="2" fill="#00ff41"/><rect x="70" y="17" width="2" height="2" fill="#00ff41"/><rect x="72" y="17" width="2" height="2" fill="#00ff41"/><rect x="64" y="19" width="2" height="2" fill="#00ff41"/><rect x="72" y="19" width="2" height="2" fill="#00ff41"/><rect x="64" y="21" width="2" height="2" fill="#00ff41"/><rect x="72" y="21" width="2" height="2" fill="#00ff41"/></g>
<g><rect x="76" y="13" width="2" height="2" fill="#00ff41"/><rect x="78" y="13" width="2" height="2" fill="#00ff41"/><rect x="80" y="13" width="2" height="2" fill="#00ff41"/><rect x="82" y="13" width="2" height="2" fill="#00ff41"/><rect x="84" y="13" width="2" height="2" fill="#00ff41"/><rect x="80" y="15" width="2" height="2" fill="#00ff41"/><rect x="80" y="17" width="2" height="2" fill="#00ff41"/><rect x="80" y="19" width="2" height="2" fill="#00ff41"/><rect x="80" y="21" width="2" height="2" fill="#00ff41"/></g>
<g><rect x="90" y="13" width="2" height="2" fill="#00ff41"/><rect x="92" y="13" width="2" height="2" fill="#00ff41"/><rect x="94" y="13" width="2" height="2" fill="#00ff41"/><rect x="96" y="13" width="2" height="2" fill="#00ff41"/><rect x="88" y="15" width="2" height="2" fill="#00ff41"/><rect x="90" y="17" width="2" height="2" fill="#00ff41"/><rect x="92" y="17" width="2" height="2" fill="#00ff41"/><rect x="94" y="17" width="2" height="2" fill="#00ff41"/><rect x="96" y="19" width="2" height="2" fill="#00ff41"/><rect x="88" y="21" width="2" height="2" fill="#00ff41"/><rect x="90" y="21" width="2" height="2" fill="#00ff41"/><rect x="92" y="21" width="2" height="2" fill="#00ff41"/><rect x="94" y="21" width="2" height="2" fill="#00ff41"/></g>
<g><rect x="100" y="13" width="2" height="2" fill="#00ff41"/><rect x="108" y="13" width="2" height="2" fill="#00ff41"/><rect x="100" y="15" width="2" height="2" fill="#00ff41"/><rect x="108" y="15" width="2" height="2" fill="#00ff41"/><rect x="100" y="17" width="2" height="2" fill="#00ff41"/><rect x="108" y="17" width="2" height="2" fill="#00ff41"/><rect x="100" y="19" width="2" height="2" fill="#00ff41"/><rect x="108" y="19" width="2" height="2" fill="#00ff41"/><rect x="102" y="21" width="2" height="2" fill="#00ff41"/><rect x="104" y="21" width="2" height="2" fill="#00ff41"/><rect x="106" y="21" width="2" height="2" fill="#00ff41"/></g>
<g><rect x="124" y="13" width="2" height="2" fill="#00ff41"/><rect x="126" y="13" width="2" height="2" fill="#00ff41"/><rect x="128" y="13" width="2" height="2" fill="#00ff41"/><rect x="130" y="13" width="2" height="2" fill="#00ff41"/><rect x="124" y="15" width="2" height="2" fill="#00ff41"/><rect x="132" y="15" width="2" height="2" fill="#00ff41"/><rect x="124" y="17" width="2" height="2" fill="#00ff41"/><rect x="126" y="17" width="2" height="2" fill="#00ff41"/><rect x="128" y="17" width="2" height="2" fill="#00ff41"/><rect x="130" y="17" width="2" height="2" fill="#00ff41"/><rect x="124" y="19" width="2" height="2" fill="#00ff41"/><rect x="132" y="19" width="2" height="2" fill="#00ff41"/><rect x="124" y="21" width="2" height="2" fill="#00ff41"/><rect x="126" y="21" width="2" height="2" fill="#00ff41"/><rect x="128" y="21" width="2" height="2" fill="#00ff41"/><rect x="130" y="21" width="2" height="2" fill="#00ff41"/></g>
<g><rect x="138" y="13" width="2" height="2" fill="#00ff41"/><rect x="140" y="13" width="2" height="2" fill="#00ff41"/><rect x="142" y="13" width="2" height="2" fill="#00ff41"/><rect x="136" y="15" width="2" height="2" fill="#00ff41"/><rect x="144" y="15" width="2" height="2" fill="#00ff41"/><rect x="136" y="17" width="2" height="2" fill="#00ff41"/><rect x="144" y="17" width="2" height="2" fill="#00ff41"/><rect x="136" y="19" width="2" height="2" fill="#00ff41"/><rect x="144" y="19" width="2" height="2" fill="#00ff41"/><rect x="138" y="21" width="2" height="2" fill="#00ff41"/><rect x="140" y="21" width="2" height="2" fill="#00ff41"/><rect x="142" y="21" width="2" height="2" fill="#00ff41"/></g>
<g><rect x="148" y="13" width="2" height="2" fill="#00ff41"/><rect x="156" y="13" width="2" height="2" fill="#00ff41"/><rect x="150" y="15" width="2" height="2" fill="#00ff41"/><rect x="154" y="15" width="2" height="2" fill="#00ff41"/><rect x="152" y="17" width="2" height="2" fill="#00ff41"/><rect x="150" y="19" width="2" height="2" fill="#00ff41"/><rect x="154" y="19" width="2" height="2" fill="#00ff41"/><rect x="148" y="21" width="2" height="2" fill="#00ff41"/><rect x="156" y="21" width="2" height="2" fill="#00ff41"/></g></svg>