<svg xmlns="http://www.w3.org/2000/svg" width="234" height="36" viewBox="0 0 234 36"><rect x="1" y="1" width="232" height="34" rx="8" fill="#0a0c10" stroke="#1c2733" stroke-width="2"/><g><rect x="18" y="13" width="2" height="2" fill="#00ff41"/><rect x="20" y="13" width="2" height="2" fill="#00ff41"/><rect x="22" y="13" width="2" height="2" fill="#00ff41"/><rect x="24" y="13" width="2" height="2" fill="#00ff41"/><rect x="16" y="15" width="2" height="2" fill="#00ff41"/><rect x="16" y="17" width="2" height="2" fill="#00ff41"/><rect x="16" y="19" width="2" height="2" fill="#00ff41"/><rect x="18" y="21" width="2" height="2" fill="#00ff41"/><rect x="20" y="21" width="2" height="2" fill="#00ff41"/><rect x="22" y="21" width="2" height="2" fill="#00ff41"/><rect x="24" y="21" width="2" height="2" fill="#00ff41"/></g>
<g><rect x="30" y="13" width="2" height="2" fill="#00ff41"/><rect x="32" y="13" width="2" height="2" fill="#00ff41"/><rect x="34" y="13" width="2" height="2" fill="#00ff41"/><rect x="28" y="15" width="2" height="2" fill="#00ff41"/><rect x="36" y="15" width="2" height="2" fill="#00ff41"/><rect x="28" y="17" width="2" height="2" fill="#00ff41"/><rect x="36" y="17" width="2" height="2" fill="#00ff41"/><rect x="28" y="19" width="2" height="2" fill="#00ff41"/><rect x="36" y="19" width="2" height="2" fill="#00ff41"/><rect x="30" y="21" width="2" height="2" fill="#00ff41"/><rect x="32" y="21" width="2" height="2" fill="#00ff41"/><rect x="34" y="21" width="2" height="2" fill="#00ff41"/></g>
<g><rect x="42" y="17" width="2" height="2" fill="#00ff41"/><rect x="44" y="17" width="2" height="2" fill="#00ff41"/><rect x="46" y="17" width="2" height="2" fill="#00ff41"/></g>
<g><rect x="54" y="13" width="2" height="2" fill="#00ff41"/><rect x="56" y="13" width="2" height="2" fill="#00ff41"/><rect x="58" y="13" width="2" height="2" fill="#00ff41"/><rect x="52" y="15" width="2" height="2" fill="#00ff41"/><rect x="60" y="15" width="2" height="2" fill="#00ff41"/><rect x="52" y="17" width="2" height="2" fill="#00ff41"/><rect x="60" y="17" width="2" height="2" fill="#00ff41"/><rect x="52" y="19" width="2" height="2" fill="#00ff41"/><rect x="60" y="19" width="2" height="2" fill="#00ff41"/><rect x="54" y="21" width="2" height="2" fill="#00ff41"/><rect x="56" y="21" width="2" height="2" fill="#00ff41"/><rect x="58" y="21" width="2" height="2" fill="#00ff41"/></g>
<g><rect x="64" y="13" width="2" height="2" fill="#00ff41"/><rect x="66" y="13" width="2" height="2" fill="#00ff41"/><rect x="68" y="13" width="2" height="2" fill="#00ff41"/><rect x="70" y="13" width="2" height="2" fill="#00ff41"/><rect x="64" y="15" width="2" height="2" fill="#00ff41"/><rect x="72" y="15" width="2" height="2" fill="#00ff41"/><rect x="64" y="17" width="2" height="2" fill="#00ff41"/><rect x="66" y="17" width="2" height="2" fill="#00ff41"/><rect x="68" y="17" width="2" height="2" fill="#00ff41"/><rect x="70" y="17" width="2" height="2" fill="#00ff41"/><rect x="64" y="19" width="2" height="2" fill="#00ff41"/><rect x="64" y="21" width="2" height="2" fill="#00ff41"/></g>
<g><rect x="88" y="13" width="2" height="2" fill="#00ff41"/><rect x="90" y="13" width="2" height="2" fill="#00ff41"/><rect x="92" y="13" width="2" height="2" fill="#00ff41"/><rect x="94" y="13" width="2" height="2" fill="#00ff41"/><rect x="88" y="15" width="2" height="2" fill="#00ff41"/><rect x="96" y="15" width="2" height="2" fill="#00ff41"/><rect x="88" y="17" width="2" height="2" fill="#00ff41"/><rect x="90" y="17" width="2" height="2" fill="#00ff41"/><rect x="92" y="17" width="2" height="2" fill="#00ff41"/><rect x="94" y="17" width="2" height="2" fill="#00ff41"/><rect x="88" y="19" width="2" height="2" fill="#00ff41"/><rect x="94" y="19" width="2" height="2" fill="#00ff41"/><rect x="88" y="21" width="2" height="2" fill="#00ff41"/><rect x="96" y="21" width="2" height="2" fill="#00ff41"/></g>
<g><rect x="100" y="13" width="2" height="2" fill="#00ff41"/><rect x="102" y="13" width="2" height="2" fill="#00ff41"/><rect x="104" y="13" width="2" height="2" fill="#00ff41"/><rect x="106" y="13" width="2" height="2" fill="#00ff41"/><rect x="108" y="13" width="2" height="2" fill="#00ff41"/><rect x="100" y="15" width="2" height="2" fill="#00ff41"/><rect x="100" y="17" width="2" height="2" fill="#00ff41"/><rect x="102" y="17" width="2" height="2" fill="#00ff41"/><rect x="104" y="17" width="2" height="2" fill="#00ff41"/><rect x="106" y="17" width="2" height="2" fill="#00ff41"/><rect x="100" y="19" width="2" height="2" fill="#00ff41"/><rect x="100" y="21" width="2" height="2" fill="#00ff41"/><rect x="102" y="21" width="2" height="2" fill="#00ff41"/><rect x="104" y="21" width="2" height="2" fill="#00ff41"/><rect x="106" y="21" width="2" height="2" fill="#00ff41"/><rect x="108" y="21" width="2" height="2" fill="#00ff41"/></g>
<g><rect x="112" y="13" width="2" height="2" fill="#00ff41"/><rect x="114" y="13" width="2" height="2" fill="#00ff41"/><rect x="116" y="13" width="2" height="2" fill="#00ff41"/><rect x="118" y="13" width="2" height="2" fill="#00ff41"/><rect x="120" y="13" width="2" height="2" fill="#00ff41"/><rect x="116" y="15" width="2" height="2" fill="#00ff41"/><rect x="116" y="17" width="2" height="2" fill="#00ff41"/><rect x="116" y="19" width="2" height="2" fill="#00ff41"/><rect x="116" y="21" width="2" height="2" fill="#00ff41"/></g>
<g><rect x="124" y="13" width="2" height="2" fill="#00ff41"/><rect x="126" y="13" width="2" height="2" fill="#00ff41"/><rect x="128" y="13" width="2" height="2" fill="#00ff41"/><rect x="130" y="13" width="2" height="2" fill="#00ff41"/><rect x="124" y="15" width="2" height="2" fill="#00ff41"/><rect x="132" y="15" width="2" height="2" fill="#00ff41"/><rect x="124" y="17" width="2" height="2" fill="#00ff41"/><rect x="126" y="17" width="2" height="2" fill="#00ff41"/><rect x="128" y="17" width="2" height="2" fill="#00ff41"/><rect x="130" y="17" width="2" height="2" fill="#00ff41"/><rect x="124" y="19" width="2" height="2" fill="#00ff41"/><rect x="130" y="19" width="2" height="2" fill="#00ff41"/><rect x="124" y="21" width="2" height="2" fill="#00ff41"/><rect x="132" y="21" width="2" height="2" fill="#00ff41"/></g>
<g><rect x="138" y="13" width="2" height="2" fill="#00ff41"/><rect x="140" y="13" width="2" height="2" fill="#00ff41"/><rect x="142" y="13" width="2" height="2" fill="#00ff41"/><rect x="136" y="15" width="2" height="2" fill="#00ff41"/><rect x="144" y="15" width="2" height="2" fill="#00ff41"/><rect x="136" y="17" width="2" height="2" fill="#00ff41"/><rect x="144" y="17" width="2" height="2" fill="#00ff41"/><rect x="136" y="19" width="2" height="2" fill="#00ff41"/><rect x="144" y="19" width="2" height="2" fill="#00ff41"/><rect x="138" y="21" width="2" height="2" fill="#00ff41"/><rect x="140" y="21" width="2" height="2" fill="#00ff41"/><rect x="142" y="21" width="2" height="2" fill="#00ff41"/></g>
<g><rect x="162" y="13" width="2" height="2" fill="#00ff41"/><rect x="164" y="13" width="2" height="2" fill="#00ff41"/><rect x="166" y="13" width="2" height="2" fill="#00ff41"/><rect x="168" y="13" width="2" height="2" fill="#00ff41"/><rect x="160" y="15" width="2" height="2" fill="#00ff41"/><rect x="160" y="17" width="2" height="2" fill="#00ff41"/><rect x="166" y="17" width="2" height="2" fill="#00ff41"/><rect x="168" y="17" width="2" height="2" fill="#00ff41"/><rect x="160" y="19" width="2" height="2" fill="#00ff41"/><rect x="168" y="19" width="2" height="2" fill="#00ff41"/><rect x="162" y="21" width="2" height="2" fill="#00ff41"/><rect x="164" y="21" width="2" height="2" fill="#00ff41"/><rect x="166" y="21" width="2" height="2" fill="#00ff41"/><rect x="168" y="21" width="2" height="2" fill="#00ff41"/></g>
<g><rect x="174" y="13" width="2" height="2" fill="#00ff41"/><rect x="176" y="13" width="2" height="2" fill="#00ff41"/><rect x="178" y="13" width="2" height="2" fill="#00ff41"/><rect x="172" y="15" width="2" height="2" fill="#00ff41"/><rect x="180" y="15" width="2" height="2" fill="#00ff41"/><rect x="172" y="17" width="2" height="2" fill="#00ff41"/><rect x="174" y="17" width="2" height="2" fill="#00ff41"/><rect x="176" y="17" width="2" height="2" fill="#00ff41"/><rect x="178" y="17" width="2" height="2" fill="#00ff41"/><rect x="180" y="17" width="2" height="2" fill="#00ff41"/><rect x="172" y="19" width="2" height="2" fill="#00ff41"/><rect x="180" y="19" width="2" height="2" fill="#00ff41"/><rect x="172" y="21" width="2" height="2" fill="#00ff41"/><rect x="180" y="21" width="2" height="2" fill="#00ff41"/></g>
<g><rect x="184" y="13" width="2" height="2" fill="#00ff41"/><rect x="192" y="13" width="2" height="2" fill="#00ff41"/><rect x="184" y="15" width="2" height="2" fill="#00ff41"/><rect x="186" y="15" width="2" height="2" fill="#00ff41"/><rect x="190" y="15" width="2" height="2" fill="#00ff41"/><rect x="192" y="15" width="2" height="2" fill="#00ff41"/><rect x="184" y="17" width="2" height="2" fill="#00ff41"/><rect x="188" y="17" width="2" height="2" fill="#00ff41"/><rect x="192" y="17" width="2" height="2" fill="#00ff41"/><rect x="184" y="19" width="2" height="2" fill="#00ff41"/><rect x="192" y="19" width="2" height="2" fill="#00ff41"/><rect x="184" y="21" width="2" height="2" fill="#00ff41"/><rect x="192" y="21" width="2" height="2" fill="#00ff41"/></g>
<g><rect x="196" y="13" width="2" height="2" fill="#00ff41"/><rect x="198" y="13" width="2" height="2" fill="#00ff41"/><rect x="200" y="13" width="2" height="2" fill="#00ff41"/><rect x="202" y="13" width="2" height="2" fill="#00ff41"/><rect x="204" y="13" width="2" height="2" fill="#00ff41"/><rect x="196" y="15" width="2" height="2" fill="#00ff41"/><rect x="196" y="17" width="2" height="2" fill="#00ff41"/><rect x="198" y="17" width="2" height="2" fill="#00ff41"/><rect x="200" y="17" width="2" height="2" fill="#00ff41"/><rect x="202" y="17" width="2" height="2" fill="#00ff41"/><rect x="196" y="19" width="2" height="2" fill="#00ff41"/><rect x="196" y="21" width="2" height="2" fill="#00ff41"/><rect x="198" y="21" width="2" height="2" fill="#00ff41"/><rect x="200" y="21" width="2" height="2" fill="#00ff41"/><rect x="202" y="21" width="2" height="2" fill="#00ff41"/><rect x="204" y="21" width="2" height="2" fill="#00ff41"/></g>
<g><rect x="210" y="13" width="2" height="2" fill="#00ff41"/><rect x="212" y="13" width="2" height="2" fill="#00ff41"/><rect x="214" y="13" width="2" height="2" fill="#00ff41"/><rect x="216" y="13" width="2" height="2" fill="#00ff41"/><rect x="208" y="15" width="2" height="2" fill="#00ff41"/><rect x="210" y="17" width="2" height="2" fill="#00ff41"/><rect x="212" y="17" width="2" height="2" fill="#00ff41"/><rect x="214" y="17" width="2" height="2" fill="#00ff41"/><rect x="216" y="19" width="2" height="2" fill="#00ff41"/><rect x="208" y="21" width="2" height="2" fill="#00ff41"/><rect x="210" y="21" width="2" height="2" fill="#00ff41"/><rect x="212" y="21" width="2" height="2" fill="#00ff41"/><rect x="214" y="21" width="2" height="2" fill="#00ff41"/></g></svg>