<svg xmlns="http://www.w3.org/2000/svg" width="830" height="100" viewBox="0 0 830 100">
<g transform="translate(0,0)">
<rect x="1" y="1" width="84" height="98" rx="8" fill="#0a0c10" stroke="#1c2733" stroke-width="2"/>
<g transform="translate(20.0,14) scale(1.9166666666666667)"><path d="M7.01 10.207h-.944l-.515 2.648h.838c.556 0 .97-.105 1.242-.314.272-.21.455-.559.55-1.049.092-.47.05-.802-.124-.995-.175-.193-.523-.29-1.047-.29zM12 5.688C5.373 5.688 0 8.514 0 12s5.373 6.313 12 6.313S24 15.486 24 12c0-3.486-5.373-6.312-12-6.312zm-3.26 7.451c-.261.25-.575.438-.917.551-.336.108-.765.164-1.285.164H5.357l-.327 1.681H3.652l1.23-6.326h2.65c.797 0 1.378.209 1.744.628.366.418.476 1.002.33 1.752a2.836 2.836 0 0 1-.305.847c-.143.255-.33.49-.561.703zm4.024.715l.543-2.799c.063-.318.039-.536-.068-.651-.107-.116-.336-.174-.687-.174H11.46l-.704 3.625H9.388l1.23-6.327h1.367l-.327 1.682h1.218c.767 0 1.295.134 1.586.401s.378.7.263 1.299l-.572 2.944h-1.389zm7.597-2.265a2.782 2.782 0 0 1-.305.847c-.143.255-.33.49-.561.703a2.44 2.44 0 0 1-.917.551c-.336.108-.765.164-1.286.164h-1.18l-.327 1.682h-1.378l1.23-6.326h2.649c.797 0 1.378.209 1.744.628.366.417.477 1.001.331 1.751zM17.766 10.207h-.943l-.516 2.648h.838c.557 0 .971-.105 1.242-.314.272-.21.455-.559.551-1.049.092-.47.049-.802-.125-.995s-.524-.29-1.047-.29z" fill="#777bb4"/></g>
<g><rect x="26" y="72" width="2" height="2" fill="#ffffff"/><rect x="28" y="72" width="2" height="2" fill="#ffffff"/><rect x="30" y="72" width="2" height="2" fill="#ffffff"/><rect x="32" y="72" width="2" height="2" fill="#ffffff"/><rect x="26" y="74" width="2" height="2" fill="#ffffff"/><rect x="34" y="74" width="2" height="2" fill="#ffffff"/><rect x="26" y="76" width="2" height="2" fill="#ffffff"/><rect x="28" y="76" width="2" height="2" fill="#ffffff"/><rect x="30" y="76" width="2" height="2" fill="#ffffff"/><rect x="32" y="76" width="2" height="2" fill="#ffffff"/><rect x="26" y="78" width="2" height="2" fill="#ffffff"/><rect x="26" y="80" width="2" height="2" fill="#ffffff"/></g>
<g><rect x="38" y="72" width="2" height="2" fill="#ffffff"/><rect x="46" y="72" width="2" height="2" fill="#ffffff"/><rect x="38" y="74" width="2" height="2" fill="#ffffff"/><rect x="46" y="74" width="2" height="2" fill="#ffffff"/><rect x="38" y="76" width="2" height="2" fill="#ffffff"/><rect x="40" y="76" width="2" height="2" fill="#ffffff"/><rect x="42" y="76" width="2" height="2" fill="#ffffff"/><rect x="44" y="76" width="2" height="2" fill="#ffffff"/><rect x="46" y="76" width="2" height="2" fill="#ffffff"/><rect x="38" y="78" width="2" height="2" fill="#ffffff"/><rect x="46" y="78" width="2" height="2" fill="#ffffff"/><rect x="38" y="80" width="2" height="2" fill="#ffffff"/><rect x="46" y="80" width="2" height="2" fill="#ffffff"/></g>
<g><rect x="50" y="72" width="2" height="2" fill="#ffffff"/><rect x="52" y="72" width="2" height="2" fill="#ffffff"/><rect x="54" y="72" width="2" height="2" fill="#ffffff"/><rect x="56" y="72" width="2" height="2" fill="#ffffff"/><rect x="50" y="74" width="2" height="2" fill="#ffffff"/><rect x="58" y="74" width="2" height="2" fill="#ffffff"/><rect x="50" y="76" width="2" height="2" fill="#ffffff"/><rect x="52" y="76" width="2" height="2" fill="#ffffff"/><rect x="54" y="76" width="2" height="2" fill="#ffffff"/><rect x="56" y="76" width="2" height="2" fill="#ffffff"/><rect x="50" y="78" width="2" height="2" fill="#ffffff"/><rect x="50" y="80" width="2" height="2" fill="#ffffff"/></g>
</g>
<g transform="translate(93,0)">
<rect x="1" y="1" width="84" height="98" rx="8" fill="#0a0c10" stroke="#1c2733" stroke-width="2"/>
<g transform="translate(20.0,14) scale(1.9166666666666667)"><path d="M17.8797 0c-.8433.5448-1.8054 1.509-2.3626 2.3403-1.1685 1.7424-1.4392 2.9943-.8005 4.8628.2165.6336.5761 1.2934.8362 1.873 1.0218 2.2778 2.0625 4.3279 1.8107 7.285 2.1603-2.7611 3.0147-3.8864 3.9253-6.57C22.54 6.1032 21.282 2.1322 17.8798 0M5.6417 4.6556c-1.1433.01-2.2877.2206-3.3819.6593-.2107 2.6576 1.0216 7.2303 5.5165 8.5057 1.8172.559 3.2721.4139 5.0555.8988v.0002c-.5755 1.016-1.4105 1.988-1.9082 2.9732-.4934.9764-.585 1.9434-.5391 3.0428.0462 1.1054.3017 2.1896.547 3.2644.9242-.1994 1.7287-.5405 2.4247-.9767 1.8315-1.1483 2.9383-2.9849 3.2528-4.9635 0 0 .0085-.0674.0153-.1245 0 .0057.0005.0114.0003.0171l.0054-.0617c.0003-.0049.0007-.004.001-.009.0055-.0583.0089-.1053.0137-.1605.0108-.123.0218-.2471.03-.3564.0023-.0285.0035-.0521.0055-.0797.0085-.1166.0171-.2335.023-.3358l.0014-.0338.0003-.003c.0006-.0115.0006-.0204.0013-.0318a15 15 0 0 0 .0147-.34c.003-.1062.005-.2063.0052-.2979l-.0002-.0115v-.0058a9 9 0 0 0-.0139-.5081c-.0088-.158-.0207-.3053-.0325-.4612-.081-1.0689-.2939-1.9498-.5285-2.6617a12 12 0 0 0-.1782-.5023v-.0002c-.179-.4714-.3545-.8502-.4805-1.1447a7.4 7.4 0 0 0-.2747-.5688 10 10 0 0 0-.1423-.2573c-.233-.407-.4347-.6938-.435-.6931l-.1231-.1832c-2.0257-2.8436-5.4458-4.6194-8.8755-4.5893" fill="#40b3d8"/></g>
<g><rect x="20" y="72" width="2" height="2" fill="#ffffff"/><rect x="28" y="72" width="2" height="2" fill="#ffffff"/><rect x="22" y="74" width="2" height="2" fill="#ffffff"/><rect x="26" y="74" width="2" height="2" fill="#ffffff"/><rect x="24" y="76" width="2" height="2" fill="#ffffff"/><rect x="24" y="78" width="2" height="2" fill="#ffffff"/><rect x="24" y="80" width="2" height="2" fill="#ffffff"/></g>
<g><rect x="32" y="72" width="2" height="2" fill="#ffffff"/><rect x="34" y="72" width="2" height="2" fill="#ffffff"/><rect x="36" y="72" width="2" height="2" fill="#ffffff"/><rect x="38" y="72" width="2" height="2" fill="#ffffff"/><rect x="40" y="72" width="2" height="2" fill="#ffffff"/><rect x="36" y="74" width="2" height="2" fill="#ffffff"/><rect x="36" y="76" width="2" height="2" fill="#ffffff"/><rect x="36" y="78" width="2" height="2" fill="#ffffff"/><rect x="32" y="80" width="2" height="2" fill="#ffffff"/><rect x="34" y="80" width="2" height="2" fill="#ffffff"/><rect x="36" y="80" width="2" height="2" fill="#ffffff"/><rect x="38" y="80" width="2" height="2" fill="#ffffff"/><rect x="40" y="80" width="2" height="2" fill="#ffffff"/></g>
<g><rect x="44" y="72" width="2" height="2" fill="#ffffff"/><rect x="46" y="72" width="2" height="2" fill="#ffffff"/><rect x="48" y="72" width="2" height="2" fill="#ffffff"/><rect x="50" y="72" width="2" height="2" fill="#ffffff"/><rect x="52" y="72" width="2" height="2" fill="#ffffff"/><rect x="48" y="74" width="2" height="2" fill="#ffffff"/><rect x="48" y="76" width="2" height="2" fill="#ffffff"/><rect x="48" y="78" width="2" height="2" fill="#ffffff"/><rect x="44" y="80" width="2" height="2" fill="#ffffff"/><rect x="46" y="80" width="2" height="2" fill="#ffffff"/><rect x="48" y="80" width="2" height="2" fill="#ffffff"/><rect x="50" y="80" width="2" height="2" fill="#ffffff"/><rect x="52" y="80" width="2" height="2" fill="#ffffff"/></g>
<g><rect x="56" y="72" width="2" height="2" fill="#ffffff"/><rect x="58" y="72" width="2" height="2" fill="#ffffff"/><rect x="60" y="72" width="2" height="2" fill="#ffffff"/><rect x="62" y="72" width="2" height="2" fill="#ffffff"/><rect x="64" y="74" width="2" height="2" fill="#ffffff"/><rect x="58" y="76" width="2" height="2" fill="#ffffff"/><rect x="60" y="76" width="2" height="2" fill="#ffffff"/><rect x="62" y="76" width="2" height="2" fill="#ffffff"/><rect x="56" y="78" width="2" height="2" fill="#ffffff"/><rect x="56" y="80" width="2" height="2" fill="#ffffff"/><rect x="58" y="80" width="2" height="2" fill="#ffffff"/><rect x="60" y="80" width="2" height="2" fill="#ffffff"/><rect x="62" y="80" width="2" height="2" fill="#ffffff"/><rect x="64" y="80" width="2" height="2" fill="#ffffff"/></g>
</g>
<g transform="translate(186,0)">
<rect x="1" y="1" width="84" height="98" rx="8" fill="#0a0c10" stroke="#1c2733" stroke-width="2"/>
<g transform="translate(20.0,14) scale(1.9166666666666667)"><path d="M17.8797 0c-.8433.5448-1.8054 1.509-2.3626 2.3403-1.1685 1.7424-1.4392 2.9943-.8005 4.8628.2165.6336.5761 1.2934.8362 1.873 1.0218 2.2778 2.0625 4.3279 1.8107 7.285 2.1603-2.7611 3.0147-3.8864 3.9253-6.57C22.54 6.1032 21.282 2.1322 17.8798 0M5.6417 4.6556c-1.1433.01-2.2877.2206-3.3819.6593-.2107 2.6576 1.0216 7.2303 5.5165 8.5057 1.8172.559 3.2721.4139 5.0555.8988v.0002c-.5755 1.016-1.4105 1.988-1.9082 2.9732-.4934.9764-.585 1.9434-.5391 3.0428.0462 1.1054.3017 2.1896.547 3.2644.9242-.1994 1.7287-.5405 2.4247-.9767 1.8315-1.1483 2.9383-2.9849 3.2528-4.9635 0 0 .0085-.0674.0153-.1245 0 .0057.0005.0114.0003.0171l.0054-.0617c.0003-.0049.0007-.004.001-.009.0055-.0583.0089-.1053.0137-.1605.0108-.123.0218-.2471.03-.3564.0023-.0285.0035-.0521.0055-.0797.0085-.1166.0171-.2335.023-.3358l.0014-.0338.0003-.003c.0006-.0115.0006-.0204.0013-.0318a15 15 0 0 0 .0147-.34c.003-.1062.005-.2063.0052-.2979l-.0002-.0115v-.0058a9 9 0 0 0-.0139-.5081c-.0088-.158-.0207-.3053-.0325-.4612-.081-1.0689-.2939-1.9498-.5285-2.6617a12 12 0 0 0-.1782-.5023v-.0002c-.179-.4714-.3545-.8502-.4805-1.1447a7.4 7.4 0 0 0-.2747-.5688 10 10 0 0 0-.1423-.2573c-.233-.407-.4347-.6938-.435-.6931l-.1231-.1832c-2.0257-2.8436-5.4458-4.6194-8.8755-4.5893" fill="#98ed00"/></g>
<g><rect x="20" y="72" width="2" height="2" fill="#ffffff"/><rect x="28" y="72" width="2" height="2" fill="#ffffff"/><rect x="22" y="74" width="2" height="2" fill="#ffffff"/><rect x="26" y="74" width="2" height="2" fill="#ffffff"/><rect x="24" y="76" width="2" height="2" fill="#ffffff"/><rect x="24" y="78" width="2" height="2" fill="#ffffff"/><rect x="24" y="80" width="2" height="2" fill="#ffffff"/></g>
<g><rect x="32" y="72" width="2" height="2" fill="#ffffff"/><rect x="34" y="72" width="2" height="2" fill="#ffffff"/><rect x="36" y="72" width="2" height="2" fill="#ffffff"/><rect x="38" y="72" width="2" height="2" fill="#ffffff"/><rect x="40" y="72" width="2" height="2" fill="#ffffff"/><rect x="36" y="74" width="2" height="2" fill="#ffffff"/><rect x="36" y="76" width="2" height="2" fill="#ffffff"/><rect x="36" y="78" width="2" height="2" fill="#ffffff"/><rect x="32" y="80" width="2" height="2" fill="#ffffff"/><rect x="34" y="80" width="2" height="2" fill="#ffffff"/><rect x="36" y="80" width="2" height="2" fill="#ffffff"/><rect x="38" y="80" width="2" height="2" fill="#ffffff"/><rect x="40" y="80" width="2" height="2" fill="#ffffff"/></g>
<g><rect x="44" y="72" width="2" height="2" fill="#ffffff"/><rect x="46" y="72" width="2" height="2" fill="#ffffff"/><rect x="48" y="72" width="2" height="2" fill="#ffffff"/><rect x="50" y="72" width="2" height="2" fill="#ffffff"/><rect x="52" y="72" width="2" height="2" fill="#ffffff"/><rect x="48" y="74" width="2" height="2" fill="#ffffff"/><rect x="48" y="76" width="2" height="2" fill="#ffffff"/><rect x="48" y="78" width="2" height="2" fill="#ffffff"/><rect x="44" y="80" width="2" height="2" fill="#ffffff"/><rect x="46" y="80" width="2" height="2" fill="#ffffff"/><rect x="48" y="80" width="2" height="2" fill="#ffffff"/><rect x="50" y="80" width="2" height="2" fill="#ffffff"/><rect x="52" y="80" width="2" height="2" fill="#ffffff"/></g>
<g><rect x="56" y="72" width="2" height="2" fill="#ffffff"/><rect x="58" y="72" width="2" height="2" fill="#ffffff"/><rect x="60" y="72" width="2" height="2" fill="#ffffff"/><rect x="62" y="72" width="2" height="2" fill="#ffffff"/><rect x="64" y="74" width="2" height="2" fill="#ffffff"/><rect x="58" y="76" width="2" height="2" fill="#ffffff"/><rect x="60" y="76" width="2" height="2" fill="#ffffff"/><rect x="62" y="76" width="2" height="2" fill="#ffffff"/><rect x="64" y="78" width="2" height="2" fill="#ffffff"/><rect x="56" y="80" width="2" height="2" fill="#ffffff"/><rect x="58" y="80" width="2" height="2" fill="#ffffff"/><rect x="60" y="80" width="2" height="2" fill="#ffffff"/><rect x="62" y="80" width="2" height="2" fill="#ffffff"/></g>
</g>
<g transform="translate(279,0)">
<rect x="1" y="1" width="84" height="98" rx="8" fill="#0a0c10" stroke="#1c2733" stroke-width="2"/>
<g transform="translate(20.0,14) scale(1.9166666666666667)"><path d="M14.314 0L2.3 12 6 15.7 21.684.013h-7.357zm.014 11.072L7.857 17.53l6.47 6.47H21.7l-6.46-6.468 6.46-6.46h-7.37z" fill="#54c5f8"/></g>
<g><rect x="2" y="72" width="2" height="2" fill="#ffffff"/><rect x="4" y="72" width="2" height="2" fill="#ffffff"/><rect x="6" y="72" width="2" height="2" fill="#ffffff"/><rect x="8" y="72" width="2" height="2" fill="#ffffff"/><rect x="10" y="72" width="2" height="2" fill="#ffffff"/><rect x="2" y="74" width="2" height="2" fill="#ffffff"/><rect x="2" y="76" width="2" height="2" fill="#ffffff"/><rect x="4" y="76" width="2" height="2" fill="#ffffff"/><rect x="6" y="76" width="2" height="2" fill="#ffffff"/><rect x="8" y="76" width="2" height="2" fill="#ffffff"/><rect x="2" y="78" width="2" height="2" fill="#ffffff"/><rect x="2" y="80" width="2" height="2" fill="#ffffff"/></g>
<g><rect x="14" y="72" width="2" height="2" fill="#ffffff"/><rect x="14" y="74" width="2" height="2" fill="#ffffff"/><rect x="14" y="76" width="2" height="2" fill="#ffffff"/><rect x="14" y="78" width="2" height="2" fill="#ffffff"/><rect x="14" y="80" width="2" height="2" fill="#ffffff"/><rect x="16" y="80" width="2" height="2" fill="#ffffff"/><rect x="18" y="80" width="2" height="2" fill="#ffffff"/><rect x="20" y="80" width="2" height="2" fill="#ffffff"/><rect x="22" y="80" width="2" height="2" fill="#ffffff"/></g>
<g><rect x="26" y="72" width="2" height="2" fill="#ffffff"/><rect x="34" y="72" width="2" height="2" fill="#ffffff"/><rect x="26" y="74" width="2" height="2" fill="#ffffff"/><rect x="34" y="74" width="2" height="2" fill="#ffffff"/><rect x="26" y="76" width="2" height="2" fill="#ffffff"/><rect x="34" y="76" width="2" height="2" fill="#ffffff"/><rect x="26" y="78" width="2" height="2" fill="#ffffff"/><rect x="34" y="78" width="2" height="2" fill="#ffffff"/><rect x="28" y="80" width="2" height="2" fill="#ffffff"/><rect x="30" y="80" width="2" height="2" fill="#ffffff"/><rect x="32" y="80" width="2" height="2" fill="#ffffff"/></g>
<g><rect x="38" y="72" width="2" height="2" fill="#ffffff"/><rect x="40" y="72" width="2" height="2" fill="#ffffff"/><rect x="42" y="72" width="2" height="2" fill="#ffffff"/><rect x="44" y="72" width="2" height="2" fill="#ffffff"/><rect x="46" y="72" width="2" height="2" fill="#ffffff"/><rect x="42" y="74" width="2" height="2" fill="#ffffff"/><rect x="42" y="76" width="2" height="2" fill="#ffffff"/><rect x="42" y="78" width="2" height="2" fill="#ffffff"/><rect x="42" y="80" width="2" height="2" fill="#ffffff"/></g>
<g><rect x="50" y="72" width="2" height="2" fill="#ffffff"/><rect x="52" y="72" width="2" height="2" fill="#ffffff"/><rect x="54" y="72" width="2" height="2" fill="#ffffff"/><rect x="56" y="72" width="2" height="2" fill="#ffffff"/><rect x="58" y="72" width="2" height="2" fill="#ffffff"/><rect x="54" y="74" width="2" height="2" fill="#ffffff"/><rect x="54" y="76" width="2" height="2" fill="#ffffff"/><rect x="54" y="78" width="2" height="2" fill="#ffffff"/><rect x="54" y="80" width="2" height="2" fill="#ffffff"/></g>
<g><rect x="62" y="72" width="2" height="2" fill="#ffffff"/><rect x="64" y="72" width="2" height="2" fill="#ffffff"/><rect x="66" y="72" width="2" height="2" fill="#ffffff"/><rect x="68" y="72" width="2" height="2" fill="#ffffff"/><rect x="70" y="72" width="2" height="2" fill="#ffffff"/><rect x="62" y="74" width="2" height="2" fill="#ffffff"/><rect x="62" y="76" width="2" height="2" fill="#ffffff"/><rect x="64" y="76" width="2" height="2" fill="#ffffff"/><rect x="66" y="76" width="2" height="2" fill="#ffffff"/><rect x="68" y="76" width="2" height="2" fill="#ffffff"/><rect x="62" y="78" width="2" height="2" fill="#ffffff"/><rect x="62" y="80" width="2" height="2" fill="#ffffff"/><rect x="64" y="80" width="2" height="2" fill="#ffffff"/><rect x="66" y="80" width="2" height="2" fill="#ffffff"/><rect x="68" y="80" width="2" height="2" fill="#ffffff"/><rect x="70" y="80" width="2" height="2" fill="#ffffff"/></g>
<g><rect x="74" y="72" width="2" height="2" fill="#ffffff"/><rect x="76" y="72" width="2" height="2" fill="#ffffff"/><rect x="78" y="72" width="2" height="2" fill="#ffffff"/><rect x="80" y="72" width="2" height="2" fill="#ffffff"/><rect x="74" y="74" width="2" height="2" fill="#ffffff"/><rect x="82" y="74" width="2" height="2" fill="#ffffff"/><rect x="74" y="76" width="2" height="2" fill="#ffffff"/><rect x="76" y="76" width="2" height="2" fill="#ffffff"/><rect x="78" y="76" width="2" height="2" fill="#ffffff"/><rect x="80" y="76" width="2" height="2" fill="#ffffff"/><rect x="74" y="78" width="2" height="2" fill="#ffffff"/><rect x="80" y="78" width="2" height="2" fill="#ffffff"/><rect x="74" y="80" width="2" height="2" fill="#ffffff"/><rect x="82" y="80" width="2" height="2" fill="#ffffff"/></g>
</g>
<g transform="translate(372,0)">
<rect x="1" y="1" width="84" height="98" rx="8" fill="#0a0c10" stroke="#1c2733" stroke-width="2"/>
<g transform="translate(20.0,14) scale(1.9166666666666667)"><path d="M7.46 13.779v.292h4.142v-3.85h3.796V9.93h-4.115v3.85zm16.248-3.558v1.62h-7.195v2.23H24v-.292h-7.168v-1.646H24V9.929h-7.487v.292zm-16.513 0v1.62H0v2.23h.292v-1.938H7.46V9.929H0v.292Z" fill="#00e5ff"/></g>
<g><rect x="26" y="72" width="2" height="2" fill="#ffffff"/><rect x="28" y="72" width="2" height="2" fill="#ffffff"/><rect x="30" y="72" width="2" height="2" fill="#ffffff"/><rect x="32" y="72" width="2" height="2" fill="#ffffff"/><rect x="26" y="74" width="2" height="2" fill="#ffffff"/><rect x="34" y="74" width="2" height="2" fill="#ffffff"/><rect x="26" y="76" width="2" height="2" fill="#ffffff"/><rect x="28" y="76" width="2" height="2" fill="#ffffff"/><rect x="30" y="76" width="2" height="2" fill="#ffffff"/><rect x="32" y="76" width="2" height="2" fill="#ffffff"/><rect x="26" y="78" width="2" height="2" fill="#ffffff"/><rect x="26" y="80" width="2" height="2" fill="#ffffff"/></g>
<g><rect x="40" y="72" width="2" height="2" fill="#ffffff"/><rect x="42" y="72" width="2" height="2" fill="#ffffff"/><rect x="44" y="72" width="2" height="2" fill="#ffffff"/><rect x="46" y="72" width="2" height="2" fill="#ffffff"/><rect x="38" y="74" width="2" height="2" fill="#ffffff"/><rect x="40" y="76" width="2" height="2" fill="#ffffff"/><rect x="42" y="76" width="2" height="2" fill="#ffffff"/><rect x="44" y="76" width="2" height="2" fill="#ffffff"/><rect x="46" y="78" width="2" height="2" fill="#ffffff"/><rect x="38" y="80" width="2" height="2" fill="#ffffff"/><rect x="40" y="80" width="2" height="2" fill="#ffffff"/><rect x="42" y="80" width="2" height="2" fill="#ffffff"/><rect x="44" y="80" width="2" height="2" fill="#ffffff"/></g>
<g><rect x="50" y="72" width="2" height="2" fill="#ffffff"/><rect x="52" y="72" width="2" height="2" fill="#ffffff"/><rect x="54" y="72" width="2" height="2" fill="#ffffff"/><rect x="56" y="72" width="2" height="2" fill="#ffffff"/><rect x="58" y="74" width="2" height="2" fill="#ffffff"/><rect x="52" y="76" width="2" height="2" fill="#ffffff"/><rect x="54" y="76" width="2" height="2" fill="#ffffff"/><rect x="56" y="76" width="2" height="2" fill="#ffffff"/><rect x="50" y="78" width="2" height="2" fill="#ffffff"/><rect x="50" y="80" width="2" height="2" fill="#ffffff"/><rect x="52" y="80" width="2" height="2" fill="#ffffff"/><rect x="54" y="80" width="2" height="2" fill="#ffffff"/><rect x="56" y="80" width="2" height="2" fill="#ffffff"/><rect x="58" y="80" width="2" height="2" fill="#ffffff"/></g>
</g>
<g transform="translate(465,0)">
<rect x="1" y="1" width="84" height="98" rx="8" fill="#0a0c10" stroke="#1c2733" stroke-width="2"/>
<g transform="translate(20.0,14) scale(1.9166666666666667)"><path d="M15.362 9.433h-3.148c-.97 0-1.446.6-1.446 1.38v2.365c0 .483-.228.83-.71.83H7.304a.035.035 0 00-.035.035v.47c0 .02.01.032.03.032h3.11c.97 0 1.45-.597 1.45-1.377v-2.363c0-.484.224-.832.71-.832h2.781c.02 0 .04-.014.04-.033v-.475c0-.02-.02-.035-.04-.035zm-9.266 0H.038c-.022 0-.038.017-.038.035v.477c0 .02.016.036.038.036h5.694c.48 0 .71.347.71.83s-.228.83-.71.83H1.228c-.7 0-1.227.586-1.227 1.365v1.513c0 .02.02.037.04.037h1.03c.02 0 .04-.016.04-.037v-1.513c0-.48.28-.82.68-.82H6.1c.97 0 1.444-.594 1.444-1.374 0-.778-.473-1.38-1.442-1.38zm17.453 2.498a.04.04 0 010-.056c.3-.25.45-.627.45-1.062 0-.778-.474-1.38-1.446-1.38h-6.057c-.02 0-.036.018-.036.038v.475c0 .02.02.04.04.04h5.7c.48 0 .715.35.715.83s-.23.83-.712.83h-5.7c-.02 0-.036.02-.036.04v.48c0 .02.016.033.037.033h5.7c.63.007.71.62.71.93v.06c0 .485-.23.833-.71.833h-5.7c-.02 0-.036.015-.036.034v.477c0 .02.015.037.036.037h6.05c.973 0 1.446-.645 1.446-1.38v-.057c0-.47-.15-.916-.45-1.19z" fill="#00e5ff"/></g>
<g><rect x="26" y="72" width="2" height="2" fill="#ffffff"/><rect x="28" y="72" width="2" height="2" fill="#ffffff"/><rect x="30" y="72" width="2" height="2" fill="#ffffff"/><rect x="32" y="72" width="2" height="2" fill="#ffffff"/><rect x="26" y="74" width="2" height="2" fill="#ffffff"/><rect x="34" y="74" width="2" height="2" fill="#ffffff"/><rect x="26" y="76" width="2" height="2" fill="#ffffff"/><rect x="28" y="76" width="2" height="2" fill="#ffffff"/><rect x="30" y="76" width="2" height="2" fill="#ffffff"/><rect x="32" y="76" width="2" height="2" fill="#ffffff"/><rect x="26" y="78" width="2" height="2" fill="#ffffff"/><rect x="26" y="80" width="2" height="2" fill="#ffffff"/></g>
<g><rect x="40" y="72" width="2" height="2" fill="#ffffff"/><rect x="42" y="72" width="2" height="2" fill="#ffffff"/><rect x="44" y="72" width="2" height="2" fill="#ffffff"/><rect x="46" y="72" width="2" height="2" fill="#ffffff"/><rect x="38" y="74" width="2" height="2" fill="#ffffff"/><rect x="40" y="76" width="2" height="2" fill="#ffffff"/><rect x="42" y="76" width="2" height="2" fill="#ffffff"/><rect x="44" y="76" width="2" height="2" fill="#ffffff"/><rect x="46" y="78" width="2" height="2" fill="#ffffff"/><rect x="38" y="80" width="2" height="2" fill="#ffffff"/><rect x="40" y="80" width="2" height="2" fill="#ffffff"/><rect x="42" y="80" width="2" height="2" fill="#ffffff"/><rect x="44" y="80" width="2" height="2" fill="#ffffff"/></g>
<g><rect x="50" y="72" width="2" height="2" fill="#ffffff"/><rect x="52" y="72" width="2" height="2" fill="#ffffff"/><rect x="54" y="72" width="2" height="2" fill="#ffffff"/><rect x="56" y="72" width="2" height="2" fill="#ffffff"/><rect x="58" y="74" width="2" height="2" fill="#ffffff"/><rect x="52" y="76" width="2" height="2" fill="#ffffff"/><rect x="54" y="76" width="2" height="2" fill="#ffffff"/><rect x="56" y="76" width="2" height="2" fill="#ffffff"/><rect x="58" y="78" width="2" height="2" fill="#ffffff"/><rect x="50" y="80" width="2" height="2" fill="#ffffff"/><rect x="52" y="80" width="2" height="2" fill="#ffffff"/><rect x="54" y="80" width="2" height="2" fill="#ffffff"/><rect x="56" y="80" width="2" height="2" fill="#ffffff"/></g>
</g>
<g transform="translate(558,0)">
<rect x="1" y="1" width="84" height="98" rx="8" fill="#0a0c10" stroke="#1c2733" stroke-width="2"/>
<g transform="translate(20.0,14) scale(1.9166666666666667)"><path d="M21.229 4.14l-.006 3.33h-10.6c-.219 0-.397.181-.397.399 0 .221.18.399.397.399l2.76-.016c4.346 0 7.868 3.525 7.868 7.869 0 4.348-3.522 7.869-7.869 7.869L2.748 24l.005-3.375h10.635c2.487 0 4.504-2.016 4.504-4.504 0-2.49-2.017-4.506-4.506-4.506l-2.771-.03c-2.06 0-3.727-1.666-3.727-3.72 0-2.061 1.666-3.726 3.723-3.726h10.618zM2.763 19.843l-.004-3.331h10.609c.21 0 .383-.175.383-.387 0-.213-.173-.385-.384-.385h-2.744c-4.345 0-7.867-3.525-7.867-7.871S6.278 0 10.623 0l10.6.003.006 3.35-10.604.003c-2.49 0-4.5 2.019-4.5 4.507 0 2.489 2.024 4.504 4.515 4.504l2.775.03c2.055 0 3.72 1.668 3.72 3.724 0 2.055-1.665 3.719-3.72 3.719H2.765l-.002.003z" fill="#0089cf"/></g>
<g><rect x="22" y="72" width="2" height="2" fill="#ffffff"/><rect x="24" y="72" width="2" height="2" fill="#ffffff"/><rect x="26" y="72" width="2" height="2" fill="#ffffff"/><rect x="28" y="72" width="2" height="2" fill="#ffffff"/><rect x="20" y="74" width="2" height="2" fill="#ffffff"/><rect x="22" y="76" width="2" height="2" fill="#ffffff"/><rect x="24" y="76" width="2" height="2" fill="#ffffff"/><rect x="26" y="76" width="2" height="2" fill="#ffffff"/><rect x="28" y="78" width="2" height="2" fill="#ffffff"/><rect x="20" y="80" width="2" height="2" fill="#ffffff"/><rect x="22" y="80" width="2" height="2" fill="#ffffff"/><rect x="24" y="80" width="2" height="2" fill="#ffffff"/><rect x="26" y="80" width="2" height="2" fill="#ffffff"/></g>
<g><rect x="32" y="72" width="2" height="2" fill="#ffffff"/><rect x="34" y="72" width="2" height="2" fill="#ffffff"/><rect x="36" y="72" width="2" height="2" fill="#ffffff"/><rect x="38" y="72" width="2" height="2" fill="#ffffff"/><rect x="40" y="72" width="2" height="2" fill="#ffffff"/><rect x="32" y="74" width="2" height="2" fill="#ffffff"/><rect x="32" y="76" width="2" height="2" fill="#ffffff"/><rect x="34" y="76" width="2" height="2" fill="#ffffff"/><rect x="36" y="76" width="2" height="2" fill="#ffffff"/><rect x="38" y="76" width="2" height="2" fill="#ffffff"/><rect x="32" y="78" width="2" height="2" fill="#ffffff"/><rect x="32" y="80" width="2" height="2" fill="#ffffff"/><rect x="34" y="80" width="2" height="2" fill="#ffffff"/><rect x="36" y="80" width="2" height="2" fill="#ffffff"/><rect x="38" y="80" width="2" height="2" fill="#ffffff"/><rect x="40" y="80" width="2" height="2" fill="#ffffff"/></g>
<g><rect x="46" y="72" width="2" height="2" fill="#ffffff"/><rect x="48" y="72" width="2" height="2" fill="#ffffff"/><rect x="50" y="72" width="2" height="2" fill="#ffffff"/><rect x="52" y="72" width="2" height="2" fill="#ffffff"/><rect x="44" y="74" width="2" height="2" fill="#ffffff"/><rect x="44" y="76" width="2" height="2" fill="#ffffff"/><rect x="50" y="76" width="2" height="2" fill="#ffffff"/><rect x="52" y="76" width="2" height="2" fill="#ffffff"/><rect x="44" y="78" width="2" height="2" fill="#ffffff"/><rect x="52" y="78" width="2" height="2" fill="#ffffff"/><rect x="46" y="80" width="2" height="2" fill="#ffffff"/><rect x="48" y="80" width="2" height="2" fill="#ffffff"/><rect x="50" y="80" width="2" height="2" fill="#ffffff"/><rect x="52" y="80" width="2" height="2" fill="#ffffff"/></g>
<g><rect x="58" y="72" width="2" height="2" fill="#ffffff"/><rect x="60" y="72" width="2" height="2" fill="#ffffff"/><rect x="62" y="72" width="2" height="2" fill="#ffffff"/><rect x="56" y="74" width="2" height="2" fill="#ffffff"/><rect x="64" y="74" width="2" height="2" fill="#ffffff"/><rect x="56" y="76" width="2" height="2" fill="#ffffff"/><rect x="58" y="76" width="2" height="2" fill="#ffffff"/><rect x="60" y="76" width="2" height="2" fill="#ffffff"/><rect x="62" y="76" width="2" height="2" fill="#ffffff"/><rect x="64" y="76" width="2" height="2" fill="#ffffff"/><rect x="56" y="78" width="2" height="2" fill="#ffffff"/><rect x="64" y="78" width="2" height="2" fill="#ffffff"/><rect x="56" y="80" width="2" height="2" fill="#ffffff"/><rect x="64" y="80" width="2" height="2" fill="#ffffff"/></g>
</g>
<g transform="translate(651,0)">
<rect x="1" y="1" width="84" height="98" rx="8" fill="#0a0c10" stroke="#1c2733" stroke-width="2"/>
<g transform="translate(20.0,14) scale(1.9166666666666667)"><path d="M6.84 5.76L8.4 7.68H5.28l-.72 2.88H2.64l.72-2.88H1.44L0 13.44h3.84l-.48 1.92h3.36L4.2 18.24h2.82l2.34-2.88h5.28l2.34 2.88h2.82l-2.52-2.88h3.36l-.48-1.92H24l-1.44-5.76h-1.92l.72 2.88h-1.92l-.72-2.88H15.6l1.56-1.92h-2.04l-1.68 1.92h-2.88L8.88 5.76zm.24 3.84H9v1.92H7.08zm7.925 0h1.92v1.92h-1.92Z" fill="#00ff41"/></g>
<g><rect x="14" y="72" width="2" height="2" fill="#ffffff"/><rect x="16" y="72" width="2" height="2" fill="#ffffff"/><rect x="18" y="72" width="2" height="2" fill="#ffffff"/><rect x="20" y="72" width="2" height="2" fill="#ffffff"/><rect x="14" y="74" width="2" height="2" fill="#ffffff"/><rect x="22" y="74" width="2" height="2" fill="#ffffff"/><rect x="14" y="76" width="2" height="2" fill="#ffffff"/><rect x="16" y="76" width="2" height="2" fill="#ffffff"/><rect x="18" y="76" width="2" height="2" fill="#ffffff"/><rect x="20" y="76" width="2" height="2" fill="#ffffff"/><rect x="14" y="78" width="2" height="2" fill="#ffffff"/><rect x="20" y="78" width="2" height="2" fill="#ffffff"/><rect x="14" y="80" width="2" height="2" fill="#ffffff"/><rect x="22" y="80" width="2" height="2" fill="#ffffff"/></g>
<g><rect x="26" y="72" width="2" height="2" fill="#ffffff"/><rect x="28" y="72" width="2" height="2" fill="#ffffff"/><rect x="30" y="72" width="2" height="2" fill="#ffffff"/><rect x="32" y="72" width="2" height="2" fill="#ffffff"/><rect x="34" y="72" width="2" height="2" fill="#ffffff"/><rect x="26" y="74" width="2" height="2" fill="#ffffff"/><rect x="26" y="76" width="2" height="2" fill="#ffffff"/><rect x="28" y="76" width="2" height="2" fill="#ffffff"/><rect x="30" y="76" width="2" height="2" fill="#ffffff"/><rect x="32" y="76" width="2" height="2" fill="#ffffff"/><rect x="26" y="78" width="2" height="2" fill="#ffffff"/><rect x="26" y="80" width="2" height="2" fill="#ffffff"/><rect x="28" y="80" width="2" height="2" fill="#ffffff"/><rect x="30" y="80" width="2" height="2" fill="#ffffff"/><rect x="32" y="80" width="2" height="2" fill="#ffffff"/><rect x="34" y="80" width="2" height="2" fill="#ffffff"/></g>
<g><rect x="38" y="72" width="2" height="2" fill="#ffffff"/><rect x="40" y="72" width="2" height="2" fill="#ffffff"/><rect x="42" y="72" width="2" height="2" fill="#ffffff"/><rect x="44" y="72" width="2" height="2" fill="#ffffff"/><rect x="46" y="72" width="2" height="2" fill="#ffffff"/><rect x="42" y="74" width="2" height="2" fill="#ffffff"/><rect x="42" y="76" width="2" height="2" fill="#ffffff"/><rect x="42" y="78" width="2" height="2" fill="#ffffff"/><rect x="42" y="80" width="2" height="2" fill="#ffffff"/></g>
<g><rect x="50" y="72" width="2" height="2" fill="#ffffff"/><rect x="52" y="72" width="2" height="2" fill="#ffffff"/><rect x="54" y="72" width="2" height="2" fill="#ffffff"/><rect x="56" y="72" width="2" height="2" fill="#ffffff"/><rect x="50" y="74" width="2" height="2" fill="#ffffff"/><rect x="58" y="74" width="2" height="2" fill="#ffffff"/><rect x="50" y="76" width="2" height="2" fill="#ffffff"/><rect x="52" y="76" width="2" height="2" fill="#ffffff"/><rect x="54" y="76" width="2" height="2" fill="#ffffff"/><rect x="56" y="76" width="2" height="2" fill="#ffffff"/><rect x="50" y="78" width="2" height="2" fill="#ffffff"/><rect x="56" y="78" width="2" height="2" fill="#ffffff"/><rect x="50" y="80" width="2" height="2" fill="#ffffff"/><rect x="58" y="80" width="2" height="2" fill="#ffffff"/></g>
<g><rect x="64" y="72" width="2" height="2" fill="#ffffff"/><rect x="66" y="72" width="2" height="2" fill="#ffffff"/><rect x="68" y="72" width="2" height="2" fill="#ffffff"/><rect x="62" y="74" width="2" height="2" fill="#ffffff"/><rect x="70" y="74" width="2" height="2" fill="#ffffff"/><rect x="62" y="76" width="2" height="2" fill="#ffffff"/><rect x="70" y="76" width="2" height="2" fill="#ffffff"/><rect x="62" y="78" width="2" height="2" fill="#ffffff"/><rect x="70" y="78" width="2" height="2" fill="#ffffff"/><rect x="64" y="80" width="2" height="2" fill="#ffffff"/><rect x="66" y="80" width="2" height="2" fill="#ffffff"/><rect x="68" y="80" width="2" height="2" fill="#ffffff"/></g>
</g>
<g transform="translate(744,0)">
<rect x="1" y="1" width="84" height="98" rx="8" fill="#0a0c10" stroke="#1c2733" stroke-width="2"/>
<g transform="translate(20.0,14) scale(1.9166666666666667)"><path d="M0 5.389V7.22h4.617l.74-.014a1.6 1.6 0 0 1 .262.008c.061.008.146.024.201.035s.082.015.135.031a2.4 2.4 0 0 1 .44.182 3 3 0 0 1 .312.191 2 2 0 0 1 .25.213c.047.046.1.1.143.147s.076.086.113.138.08.118.111.176q.048.087.08.154c.022.046.043.088.069.153a3 3 0 0 1 .181.672 3 3 0 0 1 .03.453 4 4 0 0 1-.026.357 3 3 0 0 1-.037.225c-.015.066-.03.114-.045.168l-.049.18a2 2 0 0 1-.168.392 2 2 0 0 1-.117.188 6 6 0 0 1-.185.24 2 2 0 0 1-.184.21 3.6 3.6 0 0 1-.43.32 2 2 0 0 1-.234.12 1 1 0 0 1-.182.07 1 1 0 0 1-.199.022l-.174.01.41.726 3.24 5.623 1.823-.007-3.06-5.5q.045-.031.099-.073a2 2 0 0 0 .125-.113c.049-.048.106-.107.158-.162a2 2 0 0 0 .143-.164c.044-.058.086-.123.127-.18.04-.058.08-.109.117-.166q.056-.084.111-.19a8 8 0 0 0 .244-.497 2.5 2.5 0 0 0 .16-.508c.02-.082.033-.157.05-.235q.023-.118.044-.255a4 4 0 0 0 .03-.3c.006-.105.007-.216.01-.316.002-.1.004-.189.003-.297a7 7 0 0 0-.013-.36 4 4 0 0 0-.041-.376 3 3 0 0 0-.075-.34 6 6 0 0 0-.095-.31 4 4 0 0 0-.112-.297 4 4 0 0 0-.164-.348 4 4 0 0 0-.181-.303 4 4 0 0 0-.19-.273A3 3 0 0 0 8.4 6.8a7 7 0 0 0-.25-.246 5 5 0 0 0-.304-.266 4 4 0 0 0-.272-.195 4 4 0 0 0-.271-.168 4 4 0 0 0-.729-.32 6 6 0 0 0-.424-.124 3 3 0 0 0-.345-.062 4 4 0 0 0-.272-.022H.217L.035 5.39zm17.54.01a3 3 0 0 0-.25.013 1 1 0 0 0-.19.035 2 2 0 0 0-.211.073q-.109.043-.221.095a1.5 1.5 0 0 0-.219.114 1.6 1.6 0 0 0-.207.167 3 3 0 0 0-.377.428q-.082.12-.14.233a3 3 0 0 0-.106.248 14 14 0 0 0-.121.334c-.036.107-.068.194-.746 2.101l-2.662 7.494c-.662 1.863-.661 1.864-.656 1.864h.002l.03.002h1.766l3.725-10.633.09-.252q.039-.12.082-.211a.4.4 0 0 1 .11-.14.6.6 0 0 1 .16-.098.8.8 0 0 1 .19-.053 1 1 0 0 1 .206-.006.7.7 0 0 1 .182.047 1 1 0 0 1 .193.092.5.5 0 0 1 .142.138 1 1 0 0 1 .094.198c.028.076.054.163.614 1.72a7065.411 7066 0 0 0 2.742 7.606l-5.578.002-.014 1.584 7.83-.01-4.1-11.613c-.042-.1-.08-.2-.12-.285a2.6 2.6 0 0 0-.264-.45 3 3 0 0 0-.2-.232 2 2 0 0 0-.171-.156 2 2 0 0 0-.207-.16 1 1 0 0 0-.215-.11 3 3 0 0 0-.51-.146 2 2 0 0 0-.283-.034 6 6 0 0 0-.39 0m.17 2.253a.3.3 0 0 0-.073.012.4.4 0 0 0-.102.043.4.4 0 0 0-.144.166 2 2 0 0 0-.055.147l-.066.205-3.407 9.88-.134.366-.047.127h1.681l.795-2.47v.41h4.979l-2.518-7.13c-.513-1.452-.535-1.518-.558-1.562a.24.24 0 0 0-.08-.092 1 1 0 0 0-.112-.065.4.4 0 0 0-.119-.037zM.013 7.678C0 7.676 0 7.674 0 9.494v9.104h1.813V9.506c1.12 0 2.241 0 2.816.002s.605.007.629.015a.1.1 0 0 1 .05.034.2.2 0 0 1 .03.056.4.4 0 0 1 .023.147.4.4 0 0 1-.01.084.2.2 0 0 1-.029.062.2.2 0 0 1-.06.055.3.3 0 0 1-.108.027 2 2 0 0 1-.183.006l-.264.002H2.26v8.6h1.826v-4.573l2.633 4.575h1.927l-3.814-6.711h.365a1 1 0 0 0 .164-.01 3 3 0 0 0 .29-.05 2 2 0 0 0 .265-.089q.125-.05.234-.103.105-.052.196-.115a1.8 1.8 0 0 0 .336-.31c.05-.06.1-.129.144-.189.043-.058.08-.107.113-.166a2 2 0 0 0 .098-.2 3 3 0 0 0 .078-.208 1.5 1.5 0 0 0 .078-.418 4 4 0 0 0-.002-.521 6 6 0 0 0-.02-.24 3 3 0 0 0-.025-.184 1 1 0 0 0-.044-.18 2 2 0 0 0-.086-.21 2 2 0 0 0-.106-.186 3 3 0 0 0-.137-.19 2 2 0 0 0-.136-.148 1 1 0 0 0-.143-.11 4 4 0 0 0-.205-.124 2 2 0 0 0-.207-.106 2 2 0 0 0-.24-.078 2 2 0 0 0-.207-.047l-.127-.018H.076zM17.72 11.59l1.148 3.336H16.7z" fill="#ffd23f"/></g>
<g><rect x="4" y="72" width="2" height="2" fill="#ffffff"/><rect x="6" y="72" width="2" height="2" fill="#ffffff"/><rect x="8" y="72" width="2" height="2" fill="#ffffff"/><rect x="10" y="72" width="2" height="2" fill="#ffffff"/><rect x="2" y="74" width="2" height="2" fill="#ffffff"/><rect x="2" y="76" width="2" height="2" fill="#ffffff"/><rect x="2" y="78" width="2" height="2" fill="#ffffff"/><rect x="4" y="80" width="2" height="2" fill="#ffffff"/><rect x="6" y="80" width="2" height="2" fill="#ffffff"/><rect x="8" y="80" width="2" height="2" fill="#ffffff"/><rect x="10" y="80" width="2" height="2" fill="#ffffff"/></g>
<g><rect x="14" y="72" width="2" height="2" fill="#ffffff"/><rect x="22" y="72" width="2" height="2" fill="#ffffff"/><rect x="14" y="74" width="2" height="2" fill="#ffffff"/><rect x="22" y="74" width="2" height="2" fill="#ffffff"/><rect x="14" y="76" width="2" height="2" fill="#ffffff"/><rect x="16" y="76" width="2" height="2" fill="#ffffff"/><rect x="18" y="76" width="2" height="2" fill="#ffffff"/><rect x="20" y="76" width="2" height="2" fill="#ffffff"/><rect x="22" y="76" width="2" height="2" fill="#ffffff"/><rect x="14" y="78" width="2" height="2" fill="#ffffff"/><rect x="22" y="78" width="2" height="2" fill="#ffffff"/><rect x="14" y="80" width="2" height="2" fill="#ffffff"/><rect x="22" y="80" width="2" height="2" fill="#ffffff"/></g>
<g><rect x="26" y="72" width="2" height="2" fill="#ffffff"/><rect x="28" y="72" width="2" height="2" fill="#ffffff"/><rect x="30" y="72" width="2" height="2" fill="#ffffff"/><rect x="32" y="72" width="2" height="2" fill="#ffffff"/><rect x="34" y="72" width="2" height="2" fill="#ffffff"/><rect x="26" y="74" width="2" height="2" fill="#ffffff"/><rect x="26" y="76" width="2" height="2" fill="#ffffff"/><rect x="28" y="76" width="2" height="2" fill="#ffffff"/><rect x="30" y="76" width="2" height="2" fill="#ffffff"/><rect x="32" y="76" width="2" height="2" fill="#ffffff"/><rect x="26" y="78" width="2" height="2" fill="#ffffff"/><rect x="26" y="80" width="2" height="2" fill="#ffffff"/><rect x="28" y="80" width="2" height="2" fill="#ffffff"/><rect x="30" y="80" width="2" height="2" fill="#ffffff"/><rect x="32" y="80" width="2" height="2" fill="#ffffff"/><rect x="34" y="80" width="2" height="2" fill="#ffffff"/></g>
<g><rect x="38" y="72" width="2" height="2" fill="#ffffff"/><rect x="40" y="72" width="2" height="2" fill="#ffffff"/><rect x="42" y="72" width="2" height="2" fill="#ffffff"/><rect x="44" y="72" width="2" height="2" fill="#ffffff"/><rect x="46" y="72" width="2" height="2" fill="#ffffff"/><rect x="38" y="74" width="2" height="2" fill="#ffffff"/><rect x="38" y="76" width="2" height="2" fill="#ffffff"/><rect x="40" y="76" width="2" height="2" fill="#ffffff"/><rect x="42" y="76" width="2" height="2" fill="#ffffff"/><rect x="44" y="76" width="2" height="2" fill="#ffffff"/><rect x="38" y="78" width="2" height="2" fill="#ffffff"/><rect x="38" y="80" width="2" height="2" fill="#ffffff"/><rect x="40" y="80" width="2" height="2" fill="#ffffff"/><rect x="42" y="80" width="2" height="2" fill="#ffffff"/><rect x="44" y="80" width="2" height="2" fill="#ffffff"/><rect x="46" y="80" width="2" height="2" fill="#ffffff"/></g>
<g><rect x="50" y="72" width="2" height="2" fill="#ffffff"/><rect x="58" y="72" width="2" height="2" fill="#ffffff"/><rect x="50" y="74" width="2" height="2" fill="#ffffff"/><rect x="58" y="74" width="2" height="2" fill="#ffffff"/><rect x="50" y="76" width="2" height="2" fill="#ffffff"/><rect x="58" y="76" width="2" height="2" fill="#ffffff"/><rect x="52" y="78" width="2" height="2" fill="#ffffff"/><rect x="56" y="78" width="2" height="2" fill="#ffffff"/><rect x="54" y="80" width="2" height="2" fill="#ffffff"/></g>
<g><rect x="64" y="72" width="2" height="2" fill="#ffffff"/><rect x="66" y="72" width="2" height="2" fill="#ffffff"/><rect x="68" y="72" width="2" height="2" fill="#ffffff"/><rect x="62" y="74" width="2" height="2" fill="#ffffff"/><rect x="70" y="74" width="2" height="2" fill="#ffffff"/><rect x="62" y="76" width="2" height="2" fill="#ffffff"/><rect x="70" y="76" width="2" height="2" fill="#ffffff"/><rect x="62" y="78" width="2" height="2" fill="#ffffff"/><rect x="70" y="78" width="2" height="2" fill="#ffffff"/><rect x="64" y="80" width="2" height="2" fill="#ffffff"/><rect x="66" y="80" width="2" height="2" fill="#ffffff"/><rect x="68" y="80" width="2" height="2" fill="#ffffff"/></g>
<g><rect x="76" y="72" width="2" height="2" fill="#ffffff"/><rect x="78" y="72" width="2" height="2" fill="#ffffff"/><rect x="80" y="72" width="2" height="2" fill="#ffffff"/><rect x="82" y="72" width="2" height="2" fill="#ffffff"/><rect x="74" y="74" width="2" height="2" fill="#ffffff"/><rect x="76" y="76" width="2" height="2" fill="#ffffff"/><rect x="78" y="76" width="2" height="2" fill="#ffffff"/><rect x="80" y="76" width="2" height="2" fill="#ffffff"/><rect x="82" y="78" width="2" height="2" fill="#ffffff"/><rect x="74" y="80" width="2" height="2" fill="#ffffff"/><rect x="76" y="80" width="2" height="2" fill="#ffffff"/><rect x="78" y="80" width="2" height="2" fill="#ffffff"/><rect x="80" y="80" width="2" height="2" fill="#ffffff"/></g>
</g>
</svg>