<svg xmlns="http://www.w3.org/2000/svg" width="162" height="36" viewBox="0 0 162 36"><g><g><rect x="16" y="13" width="2" height="2" fill="#ffd23f"/><rect x="18" y="13" width="2" height="2" fill="#ffd23f"/><rect x="20" y="13" width="2" height="2" fill="#ffd23f"/><rect x="22" y="13" width="2" height="2" fill="#ffd23f"/><rect x="24" y="13" width="2" height="2" fill="#ffd23f"/><rect x="20" y="15" width="2" height="2" fill="#ffd23f"/><rect x="20" y="17" width="2" height="2" fill="#ffd23f"/><rect x="20" y="19" width="2" height="2" fill="#ffd23f"/><rect x="16" y="21" width="2" height="2" fill="#ffd23f"/><rect x="18" y="21" width="2" height="2" fill="#ffd23f"/><rect x="20" y="21" width="2" height="2" fill="#ffd23f"/><rect x="22" y="21" width="2" height="2" fill="#ffd23f"/><rect x="24" y="21" width="2" height="2" fill="#ffd23f"/></g>
<g><rect x="28" y="13" width="2" height="2" fill="#ffd23f"/><rect x="36" y="13" width="2" height="2" fill="#ffd23f"/><rect x="28" y="15" width="2" height="2" fill="#ffd23f"/><rect x="30" y="15" width="2" height="2" fill="#ffd23f"/><rect x="36" y="15" width="2" height="2" fill="#ffd23f"/><rect x="28" y="17" width="2" height="2" fill="#ffd23f"/><rect x="32" y="17" width="2" height="2" fill="#ffd23f"/><rect x="36" y="17" width="2" height="2" fill="#ffd23f"/><rect x="28" y="19" width="2" height="2" fill="#ffd23f"/><rect x="34" y="19" width="2" height="2" fill="#ffd23f"/><rect x="36" y="19" width="2" height="2" fill="#ffd23f"/><rect x="28" y="21" width="2" height="2" fill="#ffd23f"/><rect x="36" y="21" width="2" height="2" fill="#ffd23f"/></g>
<g><rect x="42" y="13" width="2" height="2" fill="#ffd23f"/><rect x="44" y="13" width="2" height="2" fill="#ffd23f"/><rect x="46" y="13" width="2" height="2" fill="#ffd23f"/><rect x="48" y="13" width="2" height="2" fill="#ffd23f"/><rect x="40" y="15" width="2" height="2" fill="#ffd23f"/><rect x="42" y="17" width="2" height="2" fill="#ffd23f"/><rect x="44" y="17" width="2" height="2" fill="#ffd23f"/><rect x="46" y="17" width="2" height="2" fill="#ffd23f"/><rect x="48" y="19" width="2" height="2" fill="#ffd23f"/><rect x="40" y="21" width="2" height="2" fill="#ffd23f"/><rect x="42" y="21" width="2" height="2" fill="#ffd23f"/><rect x="44" y="21" width="2" height="2" fill="#ffd23f"/><rect x="46" y="21" width="2" height="2" fill="#ffd23f"/></g>
<g><rect x="52" y="13" width="2" height="2" fill="#ffd23f"/><rect x="54" y="13" width="2" height="2" fill="#ffd23f"/><rect x="56" y="13" width="2" height="2" fill="#ffd23f"/><rect x="58" y="13" width="2" height="2" fill="#ffd23f"/><rect x="60" y="13" width="2" height="2" fill="#ffd23f"/><rect x="52" y="15" width="2" height="2" fill="#ffd23f"/><rect x="52" y="17" width="2" height="2" fill="#ffd23f"/><rect x="54" y="17" width="2" height="2" fill="#ffd23f"/><rect x="56" y="17" width="2" height="2" fill="#ffd23f"/><rect x="58" y="17" width="2" height="2" fill="#ffd23f"/><rect x="52" y="19" width="2" height="2" fill="#ffd23f"/><rect x="52" y="21" width="2" height="2" fill="#ffd23f"/><rect x="54" y="21" width="2" height="2" fill="#ffd23f"/><rect x="56" y="21" width="2" height="2" fill="#ffd23f"/><rect x="58" y="21" width="2" height="2" fill="#ffd23f"/><rect x="60" y="21" width="2" height="2" fill="#ffd23f"/></g>
<g><rect x="64" y="13" width="2" height="2" fill="#ffd23f"/><rect x="66" y="13" width="2" height="2" fill="#ffd23f"/><rect x="68" y="13" width="2" height="2" fill="#ffd23f"/><rect x="70" y="13" width="2" height="2" fill="#ffd23f"/><rect x="64" y="15" width="2" height="2" fill="#ffd23f"/><rect x="72" y="15" width="2" height="2" fill="#ffd23f"/><rect x="64" y="17" width="2" height="2" fill="#ffd23f"/><rect x="66" y="17" width="2" height="2" fill="#ffd23f"/><rect x="68" y="17" width="2" height="2" fill="#ffd23f"/><rect x="70" y="17" width="2" height="2" fill="#ffd23f"/><rect x="64" y="19" width="2" height="2" fill="#ffd23f"/><rect x="70" y="19" width="2" height="2" fill="#ffd23f"/><rect x="64" y="21" width="2" height="2" fill="#ffd23f"/><rect x="72" y="21" width="2" height="2" fill="#ffd23f"/></g>
<g><rect x="76" y="13" width="2" height="2" fill="#ffd23f"/><rect x="78" y="13" width="2" height="2" fill="#ffd23f"/><rect x="80" y="13" width="2" height="2" fill="#ffd23f"/><rect x="82" y="13" width="2" height="2" fill="#ffd23f"/><rect x="84" y="13" width="2" height="2" fill="#ffd23f"/><rect x="80" y="15" width="2" height="2" fill="#ffd23f"/><rect x="80" y="17" width="2" height="2" fill="#ffd23f"/><rect x="80" y="19" width="2" height="2" fill="#ffd23f"/><rect x="80" y="21" width="2" height="2" fill="#ffd23f"/></g>
<g><rect x="102" y="13" width="2" height="2" fill="#ffd23f"/><rect x="104" y="13" width="2" height="2" fill="#ffd23f"/><rect x="106" y="13" width="2" height="2" fill="#ffd23f"/><rect x="108" y="13" width="2" height="2" fill="#ffd23f"/><rect x="100" y="15" width="2" height="2" fill="#ffd23f"/><rect x="100" y="17" width="2" height="2" fill="#ffd23f"/><rect x="100" y="19" width="2" height="2" fill="#ffd23f"/><rect x="102" y="21" width="2" height="2" fill="#ffd23f"/><rect x="104" y="21" width="2" height="2" fill="#ffd23f"/><rect x="106" y="21" width="2" height="2" fill="#ffd23f"/><rect x="108" y="21" width="2" height="2" fill="#ffd23f"/></g>
<g><rect x="114" y="13" width="2" height="2" fill="#ffd23f"/><rect x="116" y="13" width="2" height="2" fill="#ffd23f"/><rect x="118" y="13" width="2" height="2" fill="#ffd23f"/><rect x="112" y="15" width="2" height="2" fill="#ffd23f"/><rect x="120" y="15" width="2" height="2" fill="#ffd23f"/><rect x="112" y="17" width="2" height="2" fill="#ffd23f"/><rect x="120" y="17" width="2" height="2" fill="#ffd23f"/><rect x="112" y="19" width="2" height="2" fill="#ffd23f"/><rect x="120" y="19" width="2" height="2" fill="#ffd23f"/><rect x="114" y="21" width="2" height="2" fill="#ffd23f"/><rect x="116" y="21" width="2" height="2" fill="#ffd23f"/><rect x="118" y="21" width="2" height="2" fill="#ffd23f"/></g>
<g><rect x="124" y="13" width="2" height="2" fill="#ffd23f"/><rect x="126" y="13" width="2" height="2" fill="#ffd23f"/><rect x="128" y="13" width="2" height="2" fill="#ffd23f"/><rect x="130" y="13" width="2" height="2" fill="#ffd23f"/><rect x="132" y="13" width="2" height="2" fill="#ffd23f"/><rect x="128" y="15" width="2" height="2" fill="#ffd23f"/><rect x="128" y="17" width="2" height="2" fill="#ffd23f"/><rect x="128" y="19" width="2" height="2" fill="#ffd23f"/><rect x="124" y="21" width="2" height="2" fill="#ffd23f"/><rect x="126" y="21" width="2" height="2" fill="#ffd23f"/><rect x="128" y="21" width="2" height="2" fill="#ffd23f"/><rect x="130" y="21" width="2" height="2" fill="#ffd23f"/><rect x="132" y="21" width="2" height="2" fill="#ffd23f"/></g>
<g><rect x="136" y="13" width="2" height="2" fill="#ffd23f"/><rect x="144" y="13" width="2" height="2" fill="#ffd23f"/><rect x="136" y="15" width="2" height="2" fill="#ffd23f"/><rect x="138" y="15" width="2" height="2" fill="#ffd23f"/><rect x="144" y="15" width="2" height="2" fill="#ffd23f"/><rect x="136" y="17" width="2" height="2" fill="#ffd23f"/><rect x="140" y="17" width="2" height="2" fill="#ffd23f"/><rect x="144" y="17" width="2" height="2" fill="#ffd23f"/><rect x="136" y="19" width="2" height="2" fill="#ffd23f"/><rect x="142" y="19" width="2" height="2" fill="#ffd23f"/><rect x="144" y="19" width="2" height="2" fill="#ffd23f"/><rect x="136" y="21" width="2" height="2" fill="#ffd23f"/><rect x="144" y="21" width="2" height="2" fill="#ffd23f"/></g><animate attributeName="opacity" values="1;1;0.15;1" keyTimes="0;0.7;0.85;1" dur="1.6s" repeatCount="indefinite"/></g></svg>