<svg xmlns="http://www.w3.org/2000/svg" width="338" height="52" viewBox="0 0 338 52">
<g><rect x="10" y="6" width="6" height="6" fill="#00e5ff"/><rect x="16" y="6" width="6" height="6" fill="#00e5ff"/><rect x="22" y="6" width="6" height="6" fill="#00e5ff"/><rect x="28" y="6" width="6" height="6" fill="#00e5ff"/><rect x="34" y="6" width="6" height="6" fill="#00e5ff"/><rect x="22" y="12" width="6" height="6" fill="#00e5ff"/><rect x="22" y="18" width="6" height="6" fill="#00e5ff"/><rect x="22" y="24" width="6" height="6" fill="#00e5ff"/><rect x="10" y="30" width="6" height="6" fill="#00e5ff"/><rect x="16" y="30" width="6" height="6" fill="#00e5ff"/><rect x="22" y="30" width="6" height="6" fill="#00e5ff"/><rect x="28" y="30" width="6" height="6" fill="#00e5ff"/><rect x="34" y="30" width="6" height="6" fill="#00e5ff"/></g>
<g><rect x="46" y="6" width="6" height="6" fill="#00e5ff"/><rect x="70" y="6" width="6" height="6" fill="#00e5ff"/><rect x="46" y="12" width="6" height="6" fill="#00e5ff"/><rect x="52" y="12" width="6" height="6" fill="#00e5ff"/><rect x="70" y="12" width="6" height="6" fill="#00e5ff"/><rect x="46" y="18" width="6" height="6" fill="#00e5ff"/><rect x="58" y="18" width="6" height="6" fill="#00e5ff"/><rect x="70" y="18" width="6" height="6" fill="#00e5ff"/><rect x="46" y="24" width="6" height="6" fill="#00e5ff"/><rect x="64" y="24" width="6" height="6" fill="#00e5ff"/><rect x="70" y="24" width="6" height="6" fill="#00e5ff"/><rect x="46" y="30" width="6" height="6" fill="#00e5ff"/><rect x="70" y="30" width="6" height="6" fill="#00e5ff"/></g>
<g><rect x="82" y="6" width="6" height="6" fill="#00e5ff"/><rect x="106" y="6" width="6" height="6" fill="#00e5ff"/><rect x="82" y="12" width="6" height="6" fill="#00e5ff"/><rect x="106" y="12" width="6" height="6" fill="#00e5ff"/><rect x="82" y="18" width="6" height="6" fill="#00e5ff"/><rect x="106" y="18" width="6" height="6" fill="#00e5ff"/><rect x="88" y="24" width="6" height="6" fill="#00e5ff"/><rect x="100" y="24" width="6" height="6" fill="#00e5ff"/><rect x="94" y="30" width="6" height="6" fill="#00e5ff"/></g>
<g><rect x="118" y="6" width="6" height="6" fill="#00e5ff"/><rect x="124" y="6" width="6" height="6" fill="#00e5ff"/><rect x="130" y="6" width="6" height="6" fill="#00e5ff"/><rect x="136" y="6" width="6" height="6" fill="#00e5ff"/><rect x="142" y="6" width="6" height="6" fill="#00e5ff"/><rect x="118" y="12" width="6" height="6" fill="#00e5ff"/><rect x="118" y="18" width="6" height="6" fill="#00e5ff"/><rect x="124" y="18" width="6" height="6" fill="#00e5ff"/><rect x="130" y="18" width="6" height="6" fill="#00e5ff"/><rect x="136" y="18" width="6" height="6" fill="#00e5ff"/><rect x="118" y="24" width="6" height="6" fill="#00e5ff"/><rect x="118" y="30" width="6" height="6" fill="#00e5ff"/><rect x="124" y="30" width="6" height="6" fill="#00e5ff"/><rect x="130" y="30" width="6" height="6" fill="#00e5ff"/><rect x="136" y="30" width="6" height="6" fill="#00e5ff"/><rect x="142" y="30" width="6" height="6" fill="#00e5ff"/></g>
<g><rect x="154" y="6" width="6" height="6" fill="#00e5ff"/><rect x="178" y="6" width="6" height="6" fill="#00e5ff"/><rect x="154" y="12" width="6" height="6" fill="#00e5ff"/><rect x="160" y="12" width="6" height="6" fill="#00e5ff"/><rect x="178" y="12" width="6" height="6" fill="#00e5ff"/><rect x="154" y="18" width="6" height="6" fill="#00e5ff"/><rect x="166" y="18" width="6" height="6" fill="#00e5ff"/><rect x="178" y="18" width="6" height="6" fill="#00e5ff"/><rect x="154" y="24" width="6" height="6" fill="#00e5ff"/><rect x="172" y="24" width="6" height="6" fill="#00e5ff"/><rect x="178" y="24" width="6" height="6" fill="#00e5ff"/><rect x="154" y="30" width="6" height="6" fill="#00e5ff"/><rect x="178" y="30" width="6" height="6" fill="#00e5ff"/></g>
<g><rect x="190" y="6" width="6" height="6" fill="#00e5ff"/><rect x="196" y="6" width="6" height="6" fill="#00e5ff"/><rect x="202" y="6" width="6" height="6" fill="#00e5ff"/><rect x="208" y="6" width="6" height="6" fill="#00e5ff"/><rect x="214" y="6" width="6" height="6" fill="#00e5ff"/><rect x="202" y="12" width="6" height="6" fill="#00e5ff"/><rect x="202" y="18" width="6" height="6" fill="#00e5ff"/><rect x="202" y="24" width="6" height="6" fill="#00e5ff"/><rect x="202" y="30" width="6" height="6" fill="#00e5ff"/></g>
<g><rect x="232" y="6" width="6" height="6" fill="#00e5ff"/><rect x="238" y="6" width="6" height="6" fill="#00e5ff"/><rect x="244" y="6" width="6" height="6" fill="#00e5ff"/><rect x="226" y="12" width="6" height="6" fill="#00e5ff"/><rect x="250" y="12" width="6" height="6" fill="#00e5ff"/><rect x="226" y="18" width="6" height="6" fill="#00e5ff"/><rect x="250" y="18" width="6" height="6" fill="#00e5ff"/><rect x="226" y="24" width="6" height="6" fill="#00e5ff"/><rect x="250" y="24" width="6" height="6" fill="#00e5ff"/><rect x="232" y="30" width="6" height="6" fill="#00e5ff"/><rect x="238" y="30" width="6" height="6" fill="#00e5ff"/><rect x="244" y="30" width="6" height="6" fill="#00e5ff"/></g>
<g><rect x="262" y="6" width="6" height="6" fill="#00e5ff"/><rect x="268" y="6" width="6" height="6" fill="#00e5ff"/><rect x="274" y="6" width="6" height="6" fill="#00e5ff"/><rect x="280" y="6" width="6" height="6" fill="#00e5ff"/><rect x="262" y="12" width="6" height="6" fill="#00e5ff"/><rect x="286" y="12" width="6" height="6" fill="#00e5ff"/><rect x="262" y="18" width="6" height="6" fill="#00e5ff"/><rect x="268" y="18" width="6" height="6" fill="#00e5ff"/><rect x="274" y="18" width="6" height="6" fill="#00e5ff"/><rect x="280" y="18" width="6" height="6" fill="#00e5ff"/><rect x="262" y="24" width="6" height="6" fill="#00e5ff"/><rect x="280" y="24" width="6" height="6" fill="#00e5ff"/><rect x="262" y="30" width="6" height="6" fill="#00e5ff"/><rect x="286" y="30" width="6" height="6" fill="#00e5ff"/></g>
<g><rect x="298" y="6" width="6" height="6" fill="#00e5ff"/><rect x="322" y="6" width="6" height="6" fill="#00e5ff"/><rect x="304" y="12" width="6" height="6" fill="#00e5ff"/><rect x="316" y="12" width="6" height="6" fill="#00e5ff"/><rect x="310" y="18" width="6" height="6" fill="#00e5ff"/><rect x="310" y="24" width="6" height="6" fill="#00e5ff"/><rect x="310" y="30" width="6" height="6" fill="#00e5ff"/></g>
<rect x="10" y="42" width="318" height="3" fill="#00e5ff" opacity="0.5"/>
</svg>