<svg xmlns="http://www.w3.org/2000/svg" width="410" height="52" viewBox="0 0 410 52">
<g><rect x="10" y="6" width="6" height="6" fill="#ffd23f"/><rect x="34" y="6" width="6" height="6" fill="#ffd23f"/><rect x="10" y="12" width="6" height="6" fill="#ffd23f"/><rect x="34" y="12" width="6" height="6" fill="#ffd23f"/><rect x="10" y="18" width="6" height="6" fill="#ffd23f"/><rect x="16" y="18" width="6" height="6" fill="#ffd23f"/><rect x="22" y="18" width="6" height="6" fill="#ffd23f"/><rect x="28" y="18" width="6" height="6" fill="#ffd23f"/><rect x="34" y="18" width="6" height="6" fill="#ffd23f"/><rect x="10" y="24" width="6" height="6" fill="#ffd23f"/><rect x="34" y="24" width="6" height="6" fill="#ffd23f"/><rect x="10" y="30" width="6" height="6" fill="#ffd23f"/><rect x="34" y="30" width="6" height="6" fill="#ffd23f"/></g>
<g><rect x="46" y="6" width="6" height="6" fill="#ffd23f"/><rect x="52" y="6" width="6" height="6" fill="#ffd23f"/><rect x="58" y="6" width="6" height="6" fill="#ffd23f"/><rect x="64" y="6" width="6" height="6" fill="#ffd23f"/><rect x="70" y="6" width="6" height="6" fill="#ffd23f"/><rect x="58" y="12" width="6" height="6" fill="#ffd23f"/><rect x="58" y="18" width="6" height="6" fill="#ffd23f"/><rect x="58" y="24" width="6" height="6" fill="#ffd23f"/><rect x="46" y="30" width="6" height="6" fill="#ffd23f"/><rect x="52" y="30" width="6" height="6" fill="#ffd23f"/><rect x="58" y="30" width="6" height="6" fill="#ffd23f"/><rect x="64" y="30" width="6" height="6" fill="#ffd23f"/><rect x="70" y="30" width="6" height="6" fill="#ffd23f"/></g>
<g><rect x="88" y="6" width="6" height="6" fill="#ffd23f"/><rect x="94" y="6" width="6" height="6" fill="#ffd23f"/><rect x="100" y="6" width="6" height="6" fill="#ffd23f"/><rect x="106" y="6" width="6" height="6" fill="#ffd23f"/><rect x="82" y="12" width="6" height="6" fill="#ffd23f"/><rect x="82" y="18" width="6" height="6" fill="#ffd23f"/><rect x="100" y="18" width="6" height="6" fill="#ffd23f"/><rect x="106" y="18" width="6" height="6" fill="#ffd23f"/><rect x="82" y="24" width="6" height="6" fill="#ffd23f"/><rect x="106" y="24" width="6" height="6" fill="#ffd23f"/><rect x="88" y="30" width="6" height="6" fill="#ffd23f"/><rect x="94" y="30" width="6" height="6" fill="#ffd23f"/><rect x="100" y="30" width="6" height="6" fill="#ffd23f"/><rect x="106" y="30" width="6" height="6" fill="#ffd23f"/></g>
<g><rect x="118" y="6" width="6" height="6" fill="#ffd23f"/><rect x="142" y="6" width="6" height="6" fill="#ffd23f"/><rect x="118" y="12" width="6" height="6" fill="#ffd23f"/><rect x="142" y="12" width="6" height="6" fill="#ffd23f"/><rect x="118" y="18" width="6" height="6" fill="#ffd23f"/><rect x="124" y="18" width="6" height="6" fill="#ffd23f"/><rect x="130" y="18" width="6" height="6" fill="#ffd23f"/><rect x="136" y="18" width="6" height="6" fill="#ffd23f"/><rect x="142" y="18" width="6" height="6" fill="#ffd23f"/><rect x="118" y="24" width="6" height="6" fill="#ffd23f"/><rect x="142" y="24" width="6" height="6" fill="#ffd23f"/><rect x="118" y="30" width="6" height="6" fill="#ffd23f"/><rect x="142" y="30" width="6" height="6" fill="#ffd23f"/></g>
<g></g>
<g><rect x="196" y="6" width="6" height="6" fill="#ffd23f"/><rect x="202" y="6" width="6" height="6" fill="#ffd23f"/><rect x="208" y="6" width="6" height="6" fill="#ffd23f"/><rect x="214" y="6" width="6" height="6" fill="#ffd23f"/><rect x="190" y="12" width="6" height="6" fill="#ffd23f"/><rect x="196" y="18" width="6" height="6" fill="#ffd23f"/><rect x="202" y="18" width="6" height="6" fill="#ffd23f"/><rect x="208" y="18" width="6" height="6" fill="#ffd23f"/><rect x="214" y="24" width="6" height="6" fill="#ffd23f"/><rect x="190" y="30" width="6" height="6" fill="#ffd23f"/><rect x="196" y="30" width="6" height="6" fill="#ffd23f"/><rect x="202" y="30" width="6" height="6" fill="#ffd23f"/><rect x="208" y="30" width="6" height="6" fill="#ffd23f"/></g>
<g><rect x="232" y="6" width="6" height="6" fill="#ffd23f"/><rect x="238" y="6" width="6" height="6" fill="#ffd23f"/><rect x="244" y="6" width="6" height="6" fill="#ffd23f"/><rect x="250" y="6" width="6" height="6" fill="#ffd23f"/><rect x="226" y="12" width="6" height="6" fill="#ffd23f"/><rect x="226" y="18" width="6" height="6" fill="#ffd23f"/><rect x="226" y="24" width="6" height="6" fill="#ffd23f"/><rect x="232" y="30" width="6" height="6" fill="#ffd23f"/><rect x="238" y="30" width="6" height="6" fill="#ffd23f"/><rect x="244" y="30" width="6" height="6" fill="#ffd23f"/><rect x="250" y="30" width="6" height="6" fill="#ffd23f"/></g>
<g><rect x="268" y="6" width="6" height="6" fill="#ffd23f"/><rect x="274" y="6" width="6" height="6" fill="#ffd23f"/><rect x="280" y="6" width="6" height="6" fill="#ffd23f"/><rect x="262" y="12" width="6" height="6" fill="#ffd23f"/><rect x="286" y="12" width="6" height="6" fill="#ffd23f"/><rect x="262" y="18" width="6" height="6" fill="#ffd23f"/><rect x="286" y="18" width="6" height="6" fill="#ffd23f"/><rect x="262" y="24" width="6" height="6" fill="#ffd23f"/><rect x="286" y="24" width="6" height="6" fill="#ffd23f"/><rect x="268" y="30" width="6" height="6" fill="#ffd23f"/><rect x="274" y="30" width="6" height="6" fill="#ffd23f"/><rect x="280" y="30" width="6" height="6" fill="#ffd23f"/></g>
<g><rect x="298" y="6" width="6" height="6" fill="#ffd23f"/><rect x="304" y="6" width="6" height="6" fill="#ffd23f"/><rect x="310" y="6" width="6" height="6" fill="#ffd23f"/><rect x="316" y="6" width="6" height="6" fill="#ffd23f"/><rect x="298" y="12" width="6" height="6" fill="#ffd23f"/><rect x="322" y="12" width="6" height="6" fill="#ffd23f"/><rect x="298" y="18" width="6" height="6" fill="#ffd23f"/><rect x="304" y="18" width="6" height="6" fill="#ffd23f"/><rect x="310" y="18" width="6" height="6" fill="#ffd23f"/><rect x="316" y="18" width="6" height="6" fill="#ffd23f"/><rect x="298" y="24" width="6" height="6" fill="#ffd23f"/><rect x="316" y="24" width="6" height="6" fill="#ffd23f"/><rect x="298" y="30" width="6" height="6" fill="#ffd23f"/><rect x="322" y="30" width="6" height="6" fill="#ffd23f"/></g>
<g><rect x="334" y="6" width="6" height="6" fill="#ffd23f"/><rect x="340" y="6" width="6" height="6" fill="#ffd23f"/><rect x="346" y="6" width="6" height="6" fill="#ffd23f"/><rect x="352" y="6" width="6" height="6" fill="#ffd23f"/><rect x="358" y="6" width="6" height="6" fill="#ffd23f"/><rect x="334" y="12" width="6" height="6" fill="#ffd23f"/><rect x="334" y="18" width="6" height="6" fill="#ffd23f"/><rect x="340" y="18" width="6" height="6" fill="#ffd23f"/><rect x="346" y="18" width="6" height="6" fill="#ffd23f"/><rect x="352" y="18" width="6" height="6" fill="#ffd23f"/><rect x="334" y="24" width="6" height="6" fill="#ffd23f"/><rect x="334" y="30" width="6" height="6" fill="#ffd23f"/><rect x="340" y="30" width="6" height="6" fill="#ffd23f"/><rect x="346" y="30" width="6" height="6" fill="#ffd23f"/><rect x="352" y="30" width="6" height="6" fill="#ffd23f"/><rect x="358" y="30" width="6" height="6" fill="#ffd23f"/></g>
<g><rect x="376" y="6" width="6" height="6" fill="#ffd23f"/><rect x="382" y="6" width="6" height="6" fill="#ffd23f"/><rect x="388" y="6" width="6" height="6" fill="#ffd23f"/><rect x="394" y="6" width="6" height="6" fill="#ffd23f"/><rect x="370" y="12" width="6" height="6" fill="#ffd23f"/><rect x="376" y="18" width="6" height="6" fill="#ffd23f"/><rect x="382" y="18" width="6" height="6" fill="#ffd23f"/><rect x="388" y="18" width="6" height="6" fill="#ffd23f"/><rect x="394" y="24" width="6" height="6" fill="#ffd23f"/><rect x="370" y="30" width="6" height="6" fill="#ffd23f"/><rect x="376" y="30" width="6" height="6" fill="#ffd23f"/><rect x="382" y="30" width="6" height="6" fill="#ffd23f"/><rect x="388" y="30" width="6" height="6" fill="#ffd23f"/></g>
<rect x="10" y="42" width="390" height="3" fill="#ffd23f" opacity="0.5"/>
</svg>