<svg xmlns="http://www.w3.org/2000/svg" width="626" height="52" viewBox="0 0 626 52">
<g><rect x="16" y="6" width="6" height="6" fill="#00ff41"/><rect x="22" y="6" width="6" height="6" fill="#00ff41"/><rect x="28" y="6" width="6" height="6" fill="#00ff41"/><rect x="34" y="6" width="6" height="6" fill="#00ff41"/><rect x="10" y="12" width="6" height="6" fill="#00ff41"/><rect x="16" y="18" width="6" height="6" fill="#00ff41"/><rect x="22" y="18" width="6" height="6" fill="#00ff41"/><rect x="28" y="18" width="6" height="6" fill="#00ff41"/><rect x="34" y="24" width="6" height="6" fill="#00ff41"/><rect x="10" y="30" width="6" height="6" fill="#00ff41"/><rect x="16" y="30" width="6" height="6" fill="#00ff41"/><rect x="22" y="30" width="6" height="6" fill="#00ff41"/><rect x="28" y="30" width="6" height="6" fill="#00ff41"/></g>
<g><rect x="46" y="6" width="6" height="6" fill="#00ff41"/><rect x="52" y="6" width="6" height="6" fill="#00ff41"/><rect x="58" y="6" width="6" height="6" fill="#00ff41"/><rect x="64" y="6" width="6" height="6" fill="#00ff41"/><rect x="70" y="6" width="6" height="6" fill="#00ff41"/><rect x="46" y="12" width="6" height="6" fill="#00ff41"/><rect x="46" y="18" width="6" height="6" fill="#00ff41"/><rect x="52" y="18" width="6" height="6" fill="#00ff41"/><rect x="58" y="18" width="6" height="6" fill="#00ff41"/><rect x="64" y="18" width="6" height="6" fill="#00ff41"/><rect x="46" y="24" width="6" height="6" fill="#00ff41"/><rect x="46" y="30" width="6" height="6" fill="#00ff41"/><rect x="52" y="30" width="6" height="6" fill="#00ff41"/><rect x="58" y="30" width="6" height="6" fill="#00ff41"/><rect x="64" y="30" width="6" height="6" fill="#00ff41"/><rect x="70" y="30" width="6" height="6" fill="#00ff41"/></g>
<g><rect x="82" y="6" width="6" height="6" fill="#00ff41"/><rect x="82" y="12" width="6" height="6" fill="#00ff41"/><rect x="82" y="18" width="6" height="6" fill="#00ff41"/><rect x="82" y="24" width="6" height="6" fill="#00ff41"/><rect x="82" y="30" width="6" height="6" fill="#00ff41"/><rect x="88" y="30" width="6" height="6" fill="#00ff41"/><rect x="94" y="30" width="6" height="6" fill="#00ff41"/><rect x="100" y="30" width="6" height="6" fill="#00ff41"/><rect x="106" y="30" width="6" height="6" fill="#00ff41"/></g>
<g><rect x="118" y="6" width="6" height="6" fill="#00ff41"/><rect x="124" y="6" width="6" height="6" fill="#00ff41"/><rect x="130" y="6" width="6" height="6" fill="#00ff41"/><rect x="136" y="6" width="6" height="6" fill="#00ff41"/><rect x="142" y="6" width="6" height="6" fill="#00ff41"/><rect x="118" y="12" width="6" height="6" fill="#00ff41"/><rect x="118" y="18" width="6" height="6" fill="#00ff41"/><rect x="124" y="18" width="6" height="6" fill="#00ff41"/><rect x="130" y="18" width="6" height="6" fill="#00ff41"/><rect x="136" y="18" width="6" height="6" fill="#00ff41"/><rect x="118" y="24" width="6" height="6" fill="#00ff41"/><rect x="118" y="30" width="6" height="6" fill="#00ff41"/><rect x="124" y="30" width="6" height="6" fill="#00ff41"/><rect x="130" y="30" width="6" height="6" fill="#00ff41"/><rect x="136" y="30" width="6" height="6" fill="#00ff41"/><rect x="142" y="30" width="6" height="6" fill="#00ff41"/></g>
<g><rect x="160" y="6" width="6" height="6" fill="#00ff41"/><rect x="166" y="6" width="6" height="6" fill="#00ff41"/><rect x="172" y="6" width="6" height="6" fill="#00ff41"/><rect x="178" y="6" width="6" height="6" fill="#00ff41"/><rect x="154" y="12" width="6" height="6" fill="#00ff41"/><rect x="154" y="18" width="6" height="6" fill="#00ff41"/><rect x="154" y="24" width="6" height="6" fill="#00ff41"/><rect x="160" y="30" width="6" height="6" fill="#00ff41"/><rect x="166" y="30" width="6" height="6" fill="#00ff41"/><rect x="172" y="30" width="6" height="6" fill="#00ff41"/><rect x="178" y="30" width="6" height="6" fill="#00ff41"/></g>
<g><rect x="190" y="6" width="6" height="6" fill="#00ff41"/><rect x="196" y="6" width="6" height="6" fill="#00ff41"/><rect x="202" y="6" width="6" height="6" fill="#00ff41"/><rect x="208" y="6" width="6" height="6" fill="#00ff41"/><rect x="214" y="6" width="6" height="6" fill="#00ff41"/><rect x="202" y="12" width="6" height="6" fill="#00ff41"/><rect x="202" y="18" width="6" height="6" fill="#00ff41"/><rect x="202" y="24" width="6" height="6" fill="#00ff41"/><rect x="202" y="30" width="6" height="6" fill="#00ff41"/></g>
<g></g>
<g><rect x="262" y="6" width="6" height="6" fill="#00ff41"/><rect x="286" y="6" width="6" height="6" fill="#00ff41"/><rect x="268" y="12" width="6" height="6" fill="#00ff41"/><rect x="280" y="12" width="6" height="6" fill="#00ff41"/><rect x="274" y="18" width="6" height="6" fill="#00ff41"/><rect x="274" y="24" width="6" height="6" fill="#00ff41"/><rect x="274" y="30" width="6" height="6" fill="#00ff41"/></g>
<g><rect x="304" y="6" width="6" height="6" fill="#00ff41"/><rect x="310" y="6" width="6" height="6" fill="#00ff41"/><rect x="316" y="6" width="6" height="6" fill="#00ff41"/><rect x="298" y="12" width="6" height="6" fill="#00ff41"/><rect x="322" y="12" width="6" height="6" fill="#00ff41"/><rect x="298" y="18" width="6" height="6" fill="#00ff41"/><rect x="322" y="18" width="6" height="6" fill="#00ff41"/><rect x="298" y="24" width="6" height="6" fill="#00ff41"/><rect x="322" y="24" width="6" height="6" fill="#00ff41"/><rect x="304" y="30" width="6" height="6" fill="#00ff41"/><rect x="310" y="30" width="6" height="6" fill="#00ff41"/><rect x="316" y="30" width="6" height="6" fill="#00ff41"/></g>
<g><rect x="334" y="6" width="6" height="6" fill="#00ff41"/><rect x="358" y="6" width="6" height="6" fill="#00ff41"/><rect x="334" y="12" width="6" height="6" fill="#00ff41"/><rect x="358" y="12" width="6" height="6" fill="#00ff41"/><rect x="334" y="18" width="6" height="6" fill="#00ff41"/><rect x="358" y="18" width="6" height="6" fill="#00ff41"/><rect x="334" y="24" width="6" height="6" fill="#00ff41"/><rect x="358" y="24" width="6" height="6" fill="#00ff41"/><rect x="340" y="30" width="6" height="6" fill="#00ff41"/><rect x="346" y="30" width="6" height="6" fill="#00ff41"/><rect x="352" y="30" width="6" height="6" fill="#00ff41"/></g>
<g><rect x="370" y="6" width="6" height="6" fill="#00ff41"/><rect x="376" y="6" width="6" height="6" fill="#00ff41"/><rect x="382" y="6" width="6" height="6" fill="#00ff41"/><rect x="388" y="6" width="6" height="6" fill="#00ff41"/><rect x="370" y="12" width="6" height="6" fill="#00ff41"/><rect x="394" y="12" width="6" height="6" fill="#00ff41"/><rect x="370" y="18" width="6" height="6" fill="#00ff41"/><rect x="376" y="18" width="6" height="6" fill="#00ff41"/><rect x="382" y="18" width="6" height="6" fill="#00ff41"/><rect x="388" y="18" width="6" height="6" fill="#00ff41"/><rect x="370" y="24" width="6" height="6" fill="#00ff41"/><rect x="388" y="24" width="6" height="6" fill="#00ff41"/><rect x="370" y="30" width="6" height="6" fill="#00ff41"/><rect x="394" y="30" width="6" height="6" fill="#00ff41"/></g>
<g></g>
<g><rect x="448" y="6" width="6" height="6" fill="#00ff41"/><rect x="454" y="6" width="6" height="6" fill="#00ff41"/><rect x="460" y="6" width="6" height="6" fill="#00ff41"/><rect x="442" y="12" width="6" height="6" fill="#00ff41"/><rect x="466" y="12" width="6" height="6" fill="#00ff41"/><rect x="442" y="18" width="6" height="6" fill="#00ff41"/><rect x="466" y="18" width="6" height="6" fill="#00ff41"/><rect x="442" y="24" width="6" height="6" fill="#00ff41"/><rect x="460" y="24" width="6" height="6" fill="#00ff41"/><rect x="448" y="30" width="6" height="6" fill="#00ff41"/><rect x="454" y="30" width="6" height="6" fill="#00ff41"/><rect x="466" y="30" width="6" height="6" fill="#00ff41"/></g>
<g><rect x="478" y="6" width="6" height="6" fill="#00ff41"/><rect x="502" y="6" width="6" height="6" fill="#00ff41"/><rect x="478" y="12" width="6" height="6" fill="#00ff41"/><rect x="502" y="12" width="6" height="6" fill="#00ff41"/><rect x="478" y="18" width="6" height="6" fill="#00ff41"/><rect x="502" y="18" width="6" height="6" fill="#00ff41"/><rect x="478" y="24" width="6" height="6" fill="#00ff41"/><rect x="502" y="24" width="6" height="6" fill="#00ff41"/><rect x="484" y="30" width="6" height="6" fill="#00ff41"/><rect x="490" y="30" width="6" height="6" fill="#00ff41"/><rect x="496" y="30" width="6" height="6" fill="#00ff41"/></g>
<g><rect x="514" y="6" width="6" height="6" fill="#00ff41"/><rect x="520" y="6" width="6" height="6" fill="#00ff41"/><rect x="526" y="6" width="6" height="6" fill="#00ff41"/><rect x="532" y="6" width="6" height="6" fill="#00ff41"/><rect x="538" y="6" width="6" height="6" fill="#00ff41"/><rect x="514" y="12" width="6" height="6" fill="#00ff41"/><rect x="514" y="18" width="6" height="6" fill="#00ff41"/><rect x="520" y="18" width="6" height="6" fill="#00ff41"/><rect x="526" y="18" width="6" height="6" fill="#00ff41"/><rect x="532" y="18" width="6" height="6" fill="#00ff41"/><rect x="514" y="24" width="6" height="6" fill="#00ff41"/><rect x="514" y="30" width="6" height="6" fill="#00ff41"/><rect x="520" y="30" width="6" height="6" fill="#00ff41"/><rect x="526" y="30" width="6" height="6" fill="#00ff41"/><rect x="532" y="30" width="6" height="6" fill="#00ff41"/><rect x="538" y="30" width="6" height="6" fill="#00ff41"/></g>
<g><rect x="556" y="6" width="6" height="6" fill="#00ff41"/><rect x="562" y="6" width="6" height="6" fill="#00ff41"/><rect x="568" y="6" width="6" height="6" fill="#00ff41"/><rect x="574" y="6" width="6" height="6" fill="#00ff41"/><rect x="550" y="12" width="6" height="6" fill="#00ff41"/><rect x="556" y="18" width="6" height="6" fill="#00ff41"/><rect x="562" y="18" width="6" height="6" fill="#00ff41"/><rect x="568" y="18" width="6" height="6" fill="#00ff41"/><rect x="574" y="24" width="6" height="6" fill="#00ff41"/><rect x="550" y="30" width="6" height="6" fill="#00ff41"/><rect x="556" y="30" width="6" height="6" fill="#00ff41"/><rect x="562" y="30" width="6" height="6" fill="#00ff41"/><rect x="568" y="30" width="6" height="6" fill="#00ff41"/></g>
<g><rect x="586" y="6" width="6" height="6" fill="#00ff41"/><rect x="592" y="6" width="6" height="6" fill="#00ff41"/><rect x="598" y="6" width="6" height="6" fill="#00ff41"/><rect x="604" y="6" width="6" height="6" fill="#00ff41"/><rect x="610" y="6" width="6" height="6" fill="#00ff41"/><rect x="598" y="12" width="6" height="6" fill="#00ff41"/><rect x="598" y="18" width="6" height="6" fill="#00ff41"/><rect x="598" y="24" width="6" height="6" fill="#00ff41"/><rect x="598" y="30" width="6" height="6" fill="#00ff41"/></g>
<rect x="10" y="42" width="606" height="3" fill="#00ff41" opacity="0.5"/>
</svg>